<svg width="216" height="65" viewBox="0 0 216 65" fill="none" xmlns="http://www.w3.org/2000/svg">
<g clip-path="url(#clip0_2306_55238)">
<path d="M208 0.996094H8C3.58172 0.996094 0 4.57781 0 8.99609V56.9961C0 61.4144 3.58172 64.9961 8 64.9961H208C212.418 64.9961 216 61.4144 216 56.9961V8.99609C216 4.57781 212.418 0.996094 208 0.996094Z" fill="black"/>
<path d="M208 2.27609C209.782 2.27609 211.492 2.98409 212.752 4.24433C214.012 5.50458 214.72 7.21384 214.72 8.99609V56.9961C214.72 58.7784 214.012 60.4876 212.752 61.7479C211.492 63.0081 209.782 63.7161 208 63.7161H8C6.21775 63.7161 4.50849 63.0081 3.24824 61.7479C1.988 60.4876 1.28 58.7784 1.28 56.9961V8.99609C1.28 7.21384 1.988 5.50458 3.24824 4.24433C4.50849 2.98409 6.21775 2.27609 8 2.27609H208ZM208 0.996094H8C5.87827 0.996094 3.84344 1.83895 2.34315 3.33924C0.842855 4.83953 0 6.87436 0 8.99609V56.9961C0 59.1178 0.842855 61.1527 2.34315 62.653C3.84344 64.1532 5.87827 64.9961 8 64.9961H208C210.122 64.9961 212.157 64.1532 213.657 62.653C215.157 61.1527 216 59.1178 216 56.9961V8.99609C216 6.87436 215.157 4.83953 213.657 3.33924C212.157 1.83895 210.122 0.996094 208 0.996094Z" fill="#A6A6A6"/>
<path d="M51.3818 31.8969C51.3376 26.9835 55.405 24.5931 55.5909 24.4818C53.2874 21.1233 49.7171 20.6645 48.4624 20.6279C45.4638 20.3123 42.555 22.4222 41.0275 22.4222C39.4695 22.4222 37.1172 20.6584 34.5819 20.7102C31.3195 20.7605 28.2675 22.6494 26.5936 25.5825C23.1391 31.563 25.7155 40.3517 29.0252 45.1859C30.6808 47.5534 32.6154 50.1969 35.1475 50.1039C37.6248 50.0018 38.5502 48.5245 41.5397 48.5245C44.5018 48.5245 45.3708 50.1039 47.9533 50.0444C50.612 50.0018 52.2859 47.6662 53.8835 45.2774C55.7968 42.5638 56.5651 39.8913 56.5956 39.7541C56.5331 39.7328 51.4321 37.786 51.3818 31.8969Z" fill="white"/>
<path d="M46.5057 17.4476C47.8381 15.7813 48.7497 13.5144 48.4967 11.2139C46.5682 11.2993 44.1564 12.5478 42.7676 14.1775C41.5389 15.6136 40.4412 17.9674 40.7248 20.181C42.8911 20.3426 45.1153 19.0879 46.5057 17.4476Z" fill="white"/>
<path d="M87.2292 49.7635H83.7671L81.8706 43.8043H75.2787L73.4722 49.7635H70.1016L76.6325 29.4756H80.6663L87.2292 49.7635ZM81.2989 41.3041L79.5839 36.0065C79.4025 35.4653 79.0625 34.1908 78.561 32.1846H78.5C78.3003 33.0475 77.9786 34.3219 77.5365 36.0065L75.8519 41.3041H81.2989Z" fill="white"/>
<path d="M104.025 42.269C104.025 44.7569 103.353 46.7235 102.008 48.1672C100.804 49.4524 99.3085 50.0942 97.5234 50.0942C95.5964 50.0942 94.2122 49.4021 93.3691 48.0178H93.3081V55.7241H90.0579V39.9502C90.0579 38.3861 90.0168 36.7808 89.9375 35.1344H92.7959L92.9773 37.4531H93.0383C94.1222 35.706 95.7671 34.834 97.9746 34.834C99.7003 34.834 101.141 35.5155 102.293 36.8799C103.449 38.2458 104.025 40.0417 104.025 42.269ZM100.714 42.3879C100.714 40.964 100.394 39.7902 99.7506 38.8663C99.0479 37.9028 98.1042 37.4211 96.9212 37.4211C96.1193 37.4211 95.3906 37.6894 94.7396 38.2184C94.0872 38.752 93.6603 39.4487 93.4606 40.3115C93.36 40.714 93.3097 41.0433 93.3097 41.3024V43.7416C93.3097 44.8057 93.6359 45.7036 94.2884 46.4369C94.9409 47.1702 95.7885 47.5361 96.8312 47.5361C98.0554 47.5361 99.0082 47.0635 99.6897 46.1214C100.373 45.1777 100.714 43.9337 100.714 42.3879Z" fill="white"/>
<path d="M120.852 42.269C120.852 44.7569 120.18 46.7235 118.833 48.1672C117.631 49.4524 116.135 50.0942 114.35 50.0942C112.423 50.0942 111.039 49.4021 110.197 48.0178H110.136V55.7241H106.886V39.9502C106.886 38.3861 106.845 36.7808 106.766 35.1344H109.624L109.805 37.4531H109.866C110.949 35.706 112.594 34.834 114.803 34.834C116.527 34.834 117.968 35.5155 119.123 36.8799C120.274 38.2458 120.852 40.0417 120.852 42.269ZM117.541 42.3879C117.541 40.964 117.219 39.7902 116.576 38.8663C115.873 37.9028 114.932 37.4211 113.748 37.4211C112.944 37.4211 112.217 37.6894 111.565 38.2184C110.912 38.752 110.487 39.4487 110.287 40.3115C110.188 40.714 110.136 41.0433 110.136 41.3024V43.7416C110.136 44.8057 110.463 45.7036 111.112 46.4369C111.764 47.1687 112.612 47.5361 113.658 47.5361C114.882 47.5361 115.835 47.0635 116.516 46.1214C117.199 45.1777 117.541 43.9337 117.541 42.3879Z" fill="white"/>
<path d="M139.664 44.0745C139.664 45.8002 139.065 47.2042 137.862 48.2882C136.541 49.4727 134.701 50.0642 132.336 50.0642C130.153 50.0642 128.403 49.6434 127.078 48.8004L127.831 46.0914C129.258 46.9542 130.824 47.3872 132.53 47.3872C133.754 47.3872 134.707 47.1097 135.391 46.5579C136.073 46.006 136.413 45.2651 136.413 44.3413C136.413 43.518 136.132 42.8244 135.57 42.2618C135.01 41.6993 134.076 41.1764 132.771 40.6931C129.219 39.3684 127.444 37.4277 127.444 34.8757C127.444 33.2079 128.066 31.8404 129.312 30.7763C130.552 29.7107 132.208 29.1787 134.278 29.1787C136.124 29.1787 137.658 29.5003 138.882 30.1422L138.07 32.7917C136.926 32.1697 135.634 31.8587 134.187 31.8587C133.043 31.8587 132.15 32.1408 131.51 32.7018C130.969 33.2033 130.697 33.8146 130.697 34.5388C130.697 35.3407 131.007 36.0038 131.629 36.5252C132.17 37.0069 133.153 37.5283 134.58 38.0908C136.326 38.7936 137.608 39.6153 138.433 40.5575C139.254 41.4966 139.664 42.6719 139.664 44.0745Z" fill="white"/>
<path d="M150.409 37.5735H146.827V44.6761C146.827 46.4827 147.458 47.3852 148.723 47.3852C149.304 47.3852 149.786 47.3349 150.167 47.2342L150.257 49.7024C149.616 49.9417 148.773 50.0622 147.729 50.0622C146.445 50.0622 145.442 49.6704 144.718 48.8883C143.997 48.1047 143.634 46.7906 143.634 44.9445V37.5705H141.5V35.1313H143.634V32.4528L146.827 31.4893V35.1313H150.409V37.5735Z" fill="white"/>
<path d="M166.571 42.3288C166.571 44.5774 165.928 46.4236 164.644 47.8673C163.298 49.3537 161.511 50.0946 159.284 50.0946C157.137 50.0946 155.428 49.3826 154.154 47.9588C152.879 46.5349 152.242 44.7375 152.242 42.5712C152.242 40.3043 152.898 38.4475 154.213 37.0038C155.526 35.5586 157.297 34.8359 159.525 34.8359C161.671 34.8359 163.398 35.5479 164.702 36.9733C165.949 38.356 166.571 40.1412 166.571 42.3288ZM163.199 42.434C163.199 41.0848 162.911 39.9277 162.327 38.9627C161.645 37.795 160.671 37.2126 159.409 37.2126C158.102 37.2126 157.11 37.7965 156.428 38.9627C155.845 39.9293 155.556 41.1046 155.556 42.495C155.556 43.8442 155.845 45.0012 156.428 45.9647C157.131 47.1325 158.113 47.7148 159.38 47.7148C160.621 47.7148 161.595 47.1203 162.298 45.9342C162.897 44.9509 163.199 43.7817 163.199 42.434Z" fill="white"/>
<path d="M177.14 37.9928C176.819 37.9333 176.476 37.9028 176.116 37.9028C174.972 37.9028 174.087 38.3343 173.465 39.1986C172.924 39.9609 172.654 40.9244 172.654 42.0876V49.7634H169.405L169.435 39.7414C169.435 38.0553 169.394 36.5201 169.312 35.1359H172.144L172.262 37.9348H172.353C172.696 36.9729 173.238 36.1985 173.978 35.6176C174.703 35.0947 175.484 34.834 176.327 34.834C176.627 34.834 176.899 34.8554 177.14 34.8935V37.9928Z" fill="white"/>
<path d="M191.673 41.7567C191.673 42.3391 191.635 42.83 191.554 43.2309H181.803C181.841 44.6761 182.312 45.7814 183.218 46.5436C184.04 47.2251 185.102 47.5666 186.407 47.5666C187.851 47.5666 189.168 47.3364 190.353 46.8745L190.862 49.1307C189.477 49.7344 187.843 50.0347 185.957 50.0347C183.689 50.0347 181.908 49.367 180.613 48.0331C179.32 46.6991 178.672 44.9079 178.672 42.6608C178.672 40.4548 179.274 38.6178 180.48 37.1528C181.742 35.5887 183.448 34.8066 185.595 34.8066C187.703 34.8066 189.299 35.5887 190.383 37.1528C191.241 38.3952 191.673 39.9319 191.673 41.7567ZM188.573 40.9137C188.595 39.9502 188.383 39.1178 187.942 38.4151C187.38 37.511 186.515 37.0598 185.352 37.0598C184.29 37.0598 183.425 37.5004 182.765 38.3846C182.224 39.0874 181.902 39.9304 181.803 40.9122H188.573V40.9137Z" fill="white"/>
<path d="M80.2317 16.9949C80.2317 18.7892 79.6935 20.1399 78.6188 21.047C77.6233 21.8839 76.2085 22.3031 74.3761 22.3031C73.4675 22.3031 72.69 22.2635 72.0391 22.1842V12.3802C72.8882 12.243 73.8029 12.1729 74.7908 12.1729C76.5363 12.1729 77.8519 12.5525 78.7392 13.3117C79.7332 14.17 80.2317 15.3972 80.2317 16.9949ZM78.5471 17.0391C78.5471 15.8759 78.2392 14.9841 77.6233 14.3621C77.0074 13.7416 76.1079 13.4306 74.9234 13.4306C74.4203 13.4306 73.9919 13.4641 73.6367 13.5343V20.9875C73.8334 21.018 74.1932 21.0317 74.7161 21.0317C75.9387 21.0317 76.8824 20.6918 77.5471 20.0118C78.2117 19.3319 78.5471 18.341 78.5471 17.0391Z" fill="white"/>
<path d="M89.1636 18.5619C89.1636 19.6672 88.848 20.5727 88.2169 21.2831C87.5552 22.0133 86.6787 22.3777 85.5841 22.3777C84.5291 22.3777 83.6891 22.0286 83.0626 21.3273C82.4375 20.6276 82.125 19.7449 82.125 18.6808C82.125 17.5679 82.4467 16.6548 83.093 15.9459C83.7394 15.237 84.6084 14.8818 85.703 14.8818C86.7579 14.8818 87.6055 15.2309 88.2474 15.9306C88.8571 16.6106 89.1636 17.4887 89.1636 18.5619ZM87.5064 18.6137C87.5064 17.9506 87.3631 17.3819 87.0781 16.9078C86.7427 16.3346 86.2655 16.048 85.6451 16.048C85.0032 16.048 84.5154 16.3346 84.18 16.9078C83.8934 17.3819 83.7516 17.9597 83.7516 18.6427C83.7516 19.3059 83.8949 19.8745 84.18 20.3486C84.5261 20.9218 85.0078 21.2084 85.6298 21.2084C86.2396 21.2084 86.7183 20.9172 87.0628 20.3334C87.3586 19.8501 87.5064 19.2769 87.5064 18.6137Z" fill="white"/>
<path d="M101.139 15.0283L98.8902 22.2148H97.4267L96.4952 19.0941C96.2589 18.3151 96.0668 17.5407 95.9174 16.7723H95.8885C95.7498 17.562 95.5577 18.3349 95.3107 19.0941L94.3213 22.2148H92.841L90.7266 15.0283H92.3684L93.181 18.4447C93.3776 19.2527 93.5392 20.0226 93.6688 20.7513H93.6978C93.8167 20.1506 94.0134 19.3853 94.2908 18.46L95.3107 15.0299H96.6126L97.5898 18.3868C97.8261 19.2054 98.0182 19.9936 98.1661 20.7528H98.2103C98.3185 20.0134 98.4816 19.2252 98.6981 18.3868L99.5701 15.0299H101.139V15.0283Z" fill="white"/>
<path d="M109.424 22.2144H107.827V18.0983C107.827 16.8299 107.345 16.1957 106.378 16.1957C105.904 16.1957 105.521 16.3695 105.224 16.7186C104.93 17.0677 104.781 17.4794 104.781 17.9504V22.2129H103.183V17.0815C103.183 16.4503 103.163 15.7658 103.125 15.0249H104.529L104.604 16.1485H104.648C104.834 15.7994 105.111 15.5112 105.476 15.281C105.909 15.0127 106.394 14.877 106.924 14.877C107.595 14.877 108.153 15.0935 108.596 15.528C109.148 16.0601 109.424 16.8543 109.424 17.9093V22.2144Z" fill="white"/>
<path d="M113.831 22.2153H112.234V11.7314H113.831V22.2153Z" fill="white"/>
<path d="M123.234 18.5619C123.234 19.6672 122.918 20.5727 122.287 21.2831C121.626 22.0133 120.747 22.3777 119.654 22.3777C118.598 22.3777 117.758 22.0286 117.133 21.3273C116.508 20.6276 116.195 19.7449 116.195 18.6808C116.195 17.5679 116.517 16.6548 117.163 15.9459C117.81 15.237 118.679 14.8818 119.772 14.8818C120.828 14.8818 121.674 15.2309 122.318 15.9306C122.927 16.6106 123.234 17.4887 123.234 18.5619ZM121.575 18.6137C121.575 17.9506 121.432 17.3819 121.147 16.9078C120.813 16.3346 120.334 16.048 119.715 16.048C119.072 16.048 118.584 16.3346 118.25 16.9078C117.964 17.3819 117.822 17.9597 117.822 18.6427C117.822 19.3059 117.965 19.8745 118.25 20.3486C118.596 20.9218 119.078 21.2084 119.7 21.2084C120.31 21.2084 120.787 20.9172 121.132 20.3334C121.429 19.8501 121.575 19.2769 121.575 18.6137Z" fill="white"/>
<path d="M130.97 22.2146H129.536L129.417 21.3868H129.372C128.882 22.0469 128.182 22.3777 127.273 22.3777C126.595 22.3777 126.046 22.1597 125.633 21.7267C125.258 21.3334 125.07 20.8441 125.07 20.2632C125.07 19.3851 125.436 18.7159 126.173 18.2524C126.907 17.789 127.941 17.5618 129.272 17.5725V17.4384C129.272 16.4916 128.775 16.0191 127.779 16.0191C127.07 16.0191 126.445 16.1974 125.906 16.5511L125.581 15.5023C126.249 15.0891 127.073 14.8818 128.046 14.8818C129.924 14.8818 130.866 15.8727 130.866 17.8545V20.5011C130.866 21.2191 130.901 21.7908 130.97 22.2146ZM129.311 19.7449V18.6366C127.549 18.6061 126.668 19.0894 126.668 20.0849C126.668 20.4599 126.769 20.7404 126.974 20.9279C127.18 21.1154 127.442 21.2084 127.755 21.2084C128.106 21.2084 128.433 21.0971 128.732 20.8761C129.032 20.6535 129.217 20.3715 129.286 20.0254C129.302 19.9477 129.311 19.8531 129.311 19.7449Z" fill="white"/>
<path d="M140.048 22.2153H138.63L138.554 21.0612H138.51C138.057 21.9393 137.286 22.3784 136.202 22.3784C135.336 22.3784 134.616 22.0384 134.044 21.3585C133.473 20.6786 133.188 19.7959 133.188 18.712C133.188 17.5488 133.496 16.6067 134.118 15.8871C134.72 15.2163 135.459 14.881 136.337 14.881C137.302 14.881 137.976 15.2057 138.361 15.8566H138.391V11.7314H139.99V20.2792C139.99 20.9789 140.01 21.6238 140.048 22.2153ZM138.391 19.1846V17.9863C138.391 17.779 138.377 17.6113 138.348 17.4833C138.258 17.0991 138.064 16.7759 137.77 16.5152C137.473 16.2545 137.115 16.1234 136.701 16.1234C136.105 16.1234 135.639 16.3597 135.296 16.8338C134.956 17.3079 134.783 17.9132 134.783 18.6525C134.783 19.363 134.946 19.9392 135.274 20.3828C135.62 20.8554 136.087 21.0917 136.671 21.0917C137.195 21.0917 137.614 20.8951 137.932 20.5002C138.24 20.1359 138.391 19.6968 138.391 19.1846Z" fill="white"/>
<path d="M153.71 18.5619C153.71 19.6672 153.395 20.5727 152.764 21.2831C152.102 22.0133 151.227 22.3777 150.131 22.3777C149.078 22.3777 148.238 22.0286 147.609 21.3273C146.984 20.6276 146.672 19.7449 146.672 18.6808C146.672 17.5679 146.994 16.6548 147.64 15.9459C148.286 15.237 149.155 14.8818 150.251 14.8818C151.305 14.8818 152.154 15.2309 152.794 15.9306C153.404 16.6106 153.71 17.4887 153.71 18.5619ZM152.055 18.6137C152.055 17.9506 151.912 17.3819 151.626 16.9078C151.29 16.3346 150.814 16.048 150.192 16.048C149.552 16.048 149.064 16.3346 148.727 16.9078C148.44 17.3819 148.299 17.9597 148.299 18.6427C148.299 19.3059 148.442 19.8745 148.727 20.3486C149.073 20.9218 149.555 21.2084 150.177 21.2084C150.786 21.2084 151.267 20.9172 151.611 20.3334C151.905 19.8501 152.055 19.2769 152.055 18.6137Z" fill="white"/>
<path d="M162.298 22.2144H160.702V18.0983C160.702 16.8299 160.22 16.1957 159.252 16.1957C158.778 16.1957 158.395 16.3695 158.099 16.7186C157.803 17.0677 157.656 17.4794 157.656 17.9504V22.2129H156.056V17.0815C156.056 16.4503 156.038 15.7658 156 15.0249H157.403L157.477 16.1485H157.521C157.709 15.7994 157.986 15.5112 158.349 15.281C158.784 15.0127 159.267 14.877 159.799 14.877C160.468 14.877 161.026 15.0935 161.47 15.528C162.023 16.0601 162.298 16.8543 162.298 17.9093V22.2144Z" fill="white"/>
<path d="M173.049 16.2258H171.289V19.7168C171.289 20.6041 171.602 21.0477 172.221 21.0477C172.507 21.0477 172.745 21.0233 172.933 20.973L172.974 22.185C172.658 22.3039 172.244 22.3634 171.733 22.3634C171.102 22.3634 170.611 22.1713 170.256 21.7871C169.899 21.4029 169.722 20.7565 169.722 19.8495V16.2258H168.672V15.029H169.722V13.7119L171.288 13.2393V15.0275H173.047V16.2258H173.049Z" fill="white"/>
<path d="M181.507 22.2153H179.908V18.1296C179.908 16.8415 179.426 16.1966 178.461 16.1966C177.72 16.1966 177.214 16.5701 176.936 17.3171C176.889 17.4741 176.862 17.6662 176.862 17.8918V22.2138H175.266V11.7314H176.862V16.0624H176.892C177.395 15.2743 178.116 14.881 179.051 14.881C179.713 14.881 180.26 15.0974 180.694 15.5319C181.236 16.0731 181.507 16.878 181.507 17.9421V22.2153Z" fill="white"/>
<path d="M190.233 18.2815C190.233 18.5682 190.212 18.809 190.173 19.0057H185.382C185.403 19.7161 185.632 20.2573 186.076 20.6323C186.481 20.9677 187.004 21.1354 187.644 21.1354C188.353 21.1354 189 21.0226 189.582 20.7954L189.832 21.9053C189.151 22.201 188.349 22.3489 187.42 22.3489C186.307 22.3489 185.431 22.0211 184.797 21.3656C184.159 20.7101 183.844 19.8304 183.844 18.7267C183.844 17.6428 184.138 16.7403 184.731 16.0207C185.35 15.2524 186.187 14.8682 187.243 14.8682C188.277 14.8682 189.062 15.2524 189.593 16.0207C190.021 16.6305 190.233 17.3851 190.233 18.2815ZM188.708 17.8684C188.721 17.3943 188.615 16.9857 188.399 16.6412C188.121 16.1976 187.699 15.975 187.128 15.975C186.606 15.975 186.181 16.1915 185.856 16.626C185.591 16.972 185.434 17.3851 185.382 17.8684H188.708Z" fill="white"/>
</g>
<defs>
<clipPath id="clip0_2306_55238">
<rect width="216" height="64" fill="white" transform="translate(0 0.996094)"/>
</clipPath>
</defs>
</svg>
