<svg width="147" height="44" viewBox="0 0 147 44" fill="none" xmlns="http://www.w3.org/2000/svg">
<path d="M145.24 38.1763C145.24 40.4248 143.381 42.2461 141.081 42.2461H4.97691C2.6783 42.2461 0.8125 40.4248 0.8125 38.1763V5.72098C0.8125 3.47356 2.6783 1.64587 4.97691 1.64587H141.08C143.381 1.64587 145.239 3.47356 145.239 5.72098L145.24 38.1763Z" fill="#212325"/>
<path d="M140.641 1.69513C143.146 1.69513 145.184 3.68213 145.184 6.12402V37.7683C145.184 40.2102 143.146 42.1972 140.641 42.1972H5.40928C2.90478 42.1972 0.866836 40.2102 0.866836 37.7683V6.12402C0.866836 3.68213 2.90478 1.69513 5.40928 1.69513H140.641ZM140.641 0.849971H5.40928C2.43553 0.849971 0 3.22461 0 6.12402V37.7683C0 40.6677 2.43553 43.0423 5.40928 43.0423H140.641C143.615 43.0423 146.05 40.6677 146.05 37.7683V6.12402C146.05 3.22461 143.615 0.849971 140.641 0.849971Z" fill="#A6A6A6"/>
<path d="M32.5911 21.7172C32.5597 18.3176 35.4461 16.6636 35.5781 16.5866C33.9434 14.2629 31.4097 13.9454 30.5193 13.9201C28.3913 13.7017 26.3271 15.1616 25.2431 15.1616C24.1375 15.1616 22.4682 13.9412 20.669 13.977C18.3539 14.0118 16.188 15.3187 15.0001 17.3482C12.5486 21.4862 14.377 27.5672 16.7257 30.912C17.9006 32.5501 19.2734 34.3791 21.0704 34.3148C22.8284 34.2441 23.4851 33.222 25.6066 33.222C27.7087 33.222 28.3253 34.3148 30.158 34.2736C32.0447 34.2441 33.2326 32.6281 34.3664 30.9753C35.7241 29.0977 36.2694 27.2486 36.291 27.1537C36.2467 27.1389 32.6268 25.7919 32.5911 21.7172Z" fill="white"/>
<path d="M29.1291 11.7197C30.0747 10.5668 30.7216 8.99832 30.542 7.40662C29.1735 7.46569 27.462 8.32957 26.4764 9.45716C25.6045 10.4508 24.8255 12.0794 25.0268 13.611C26.5641 13.7228 28.1425 12.8547 29.1291 11.7197Z" fill="white"/>
<path d="M58.0375 34.0817H55.5806L54.2347 29.9585H49.5568L48.2748 34.0817H45.8828L50.5175 20.0443H53.3801L58.0375 34.0817ZM53.829 28.2286L52.612 24.5631C52.4832 24.1887 52.242 23.3068 51.886 21.9187H51.8427C51.701 22.5157 51.4728 23.3975 51.159 24.5631L49.9636 28.2286H53.829Z" fill="white"/>
<path d="M69.9584 28.8966C69.9584 30.6181 69.4813 31.9788 68.5271 32.9777C67.6724 33.8669 66.6111 34.311 65.3442 34.311C63.9768 34.311 62.9945 33.8321 62.3962 32.8743H62.3529V38.2064H60.0464V27.2923C60.0464 26.21 60.0172 25.0993 59.9609 23.9601H61.9894L62.1182 25.5645H62.1614C62.9306 24.3557 64.098 23.7523 65.6645 23.7523C66.8891 23.7523 67.9115 24.2238 68.7294 25.1679C69.5494 26.113 69.9584 27.3555 69.9584 28.8966ZM67.6086 28.9789C67.6086 27.9937 67.3814 27.1815 66.9248 26.5423C66.4261 25.8756 65.7564 25.5423 64.9169 25.5423C64.3479 25.5423 63.8307 25.728 63.3688 26.094C62.9057 26.4632 62.6028 26.9452 62.4611 27.5422C62.3897 27.8207 62.354 28.0486 62.354 28.2279V29.9156C62.354 30.6518 62.5855 31.2731 63.0486 31.7805C63.5116 32.2878 64.1131 32.541 64.8531 32.541C65.7218 32.541 66.398 32.214 66.8816 31.5621C67.3662 30.9092 67.6086 30.0485 67.6086 28.9789Z" fill="white"/>
<path d="M81.9026 28.8966C81.9026 30.6181 81.4255 31.9788 80.4702 32.9777C79.6166 33.8669 78.5553 34.311 77.2885 34.311C75.921 34.311 74.9387 33.8321 74.3415 32.8743H74.2982V38.2064H71.9917V27.2923C71.9917 26.21 71.9625 25.0993 71.9062 23.9601H73.9347L74.0635 25.5645H74.1067C74.8749 24.3557 76.0422 23.7523 77.6098 23.7523C78.8334 23.7523 79.8557 24.2238 80.6758 25.1679C81.4926 26.113 81.9026 27.3555 81.9026 28.8966ZM79.5528 28.9789C79.5528 27.9937 79.3245 27.1815 78.868 26.5423C78.3693 25.8756 77.7018 25.5423 76.8612 25.5423C76.291 25.5423 75.775 25.728 75.3119 26.094C74.8489 26.4632 74.5471 26.9452 74.4053 27.5422C74.335 27.8207 74.2982 28.0486 74.2982 28.2279V29.9156C74.2982 30.6518 74.5297 31.2731 74.9906 31.7805C75.4537 32.2868 76.0552 32.541 76.7973 32.541C77.6661 32.541 78.3422 32.214 78.8258 31.5621C79.3105 30.9092 79.5528 30.0485 79.5528 28.9789Z" fill="white"/>
<path d="M95.2443 30.1448C95.2443 31.3388 94.8191 32.3103 93.9655 33.0603C93.0276 33.8799 91.7218 34.2891 90.0438 34.2891C88.4946 34.2891 87.2526 33.998 86.3125 33.4147L86.8469 31.5403C87.8596 32.1373 88.9706 32.4369 90.1812 32.4369C91.0499 32.4369 91.7261 32.2449 92.2119 31.8631C92.6954 31.4812 92.9367 30.9686 92.9367 30.3294C92.9367 29.7598 92.7376 29.2799 92.3384 28.8906C91.9414 28.5014 91.2782 28.1396 90.3521 27.8052C87.8314 26.8886 86.5722 25.5458 86.5722 23.7801C86.5722 22.6261 87.0135 21.68 87.8974 20.9437C88.7781 20.2064 89.9529 19.8383 91.4221 19.8383C92.7322 19.8383 93.8206 20.0608 94.6893 20.5049L94.1127 22.3382C93.3013 21.9078 92.3839 21.6926 91.3572 21.6926C90.5458 21.6926 89.9118 21.8878 89.4575 22.2759C89.0734 22.623 88.8808 23.0459 88.8808 23.547C88.8808 24.1018 89.1004 24.5606 89.5418 24.9214C89.9259 25.2547 90.6237 25.6154 91.6363 26.0047C92.875 26.4909 93.7849 27.0595 94.3702 27.7114C94.9533 28.3611 95.2443 29.1744 95.2443 30.1448Z" fill="white"/>
<path d="M102.869 25.6476H100.327V30.562C100.327 31.8119 100.775 32.4364 101.673 32.4364C102.085 32.4364 102.427 32.4015 102.697 32.3319L102.761 34.0397C102.307 34.2053 101.708 34.2886 100.967 34.2886C100.056 34.2886 99.3446 34.0175 98.8307 33.4764C98.319 32.9342 98.0615 32.025 98.0615 30.7476V25.6455H96.5469V23.9578H98.0615V22.1045L100.327 21.4379V23.9578H102.869V25.6476Z" fill="white"/>
<path d="M114.34 28.9367C114.34 30.4925 113.884 31.7699 112.973 32.7688C112.017 33.7973 110.75 34.3099 109.169 34.3099C107.646 34.3099 106.433 33.8173 105.529 32.8321C104.624 31.8469 104.172 30.6033 104.172 29.1044C104.172 27.5359 104.637 26.2512 105.571 25.2523C106.502 24.2523 107.759 23.7523 109.34 23.7523C110.863 23.7523 112.089 24.2449 113.014 25.2312C113.899 26.1879 114.34 27.4231 114.34 28.9367ZM111.947 29.0095C111.947 28.076 111.743 27.2754 111.328 26.6077C110.845 25.7997 110.153 25.3968 109.258 25.3968C108.331 25.3968 107.626 25.8008 107.143 26.6077C106.728 27.2764 106.524 28.0897 106.524 29.0517C106.524 29.9852 106.728 30.7858 107.143 31.4524C107.641 32.2604 108.338 32.6633 109.237 32.6633C110.118 32.6633 110.809 32.252 111.308 31.4313C111.733 30.751 111.947 29.9419 111.947 29.0095Z" fill="white"/>
<path d="M121.836 25.9379C121.607 25.8967 121.364 25.8757 121.109 25.8757C120.297 25.8757 119.67 26.1742 119.228 26.7722C118.844 27.2996 118.652 27.9663 118.652 28.7711V34.0821H116.346L116.368 27.1477C116.368 25.9811 116.339 24.9189 116.281 23.9612H118.29L118.375 25.8978H118.438C118.682 25.2322 119.066 24.6964 119.592 24.2945C120.106 23.9327 120.661 23.7523 121.259 23.7523C121.472 23.7523 121.665 23.7671 121.836 23.7935V25.9379Z" fill="white"/>
<path d="M132.156 28.5417C132.156 28.9446 132.129 29.2842 132.071 29.5617H125.152C125.179 30.5616 125.513 31.3264 126.156 31.8538C126.739 32.3253 127.493 32.5615 128.419 32.5615C129.444 32.5615 130.378 32.4023 131.219 32.0827L131.58 33.6438C130.598 34.0615 129.438 34.2693 128.1 34.2693C126.49 34.2693 125.226 33.8073 124.307 32.8843C123.389 31.9614 122.93 30.722 122.93 29.1672C122.93 27.6409 123.357 26.3698 124.213 25.3561C125.109 24.2739 126.319 23.7328 127.842 23.7328C129.339 23.7328 130.471 24.2739 131.24 25.3561C131.85 26.2158 132.156 27.2791 132.156 28.5417ZM129.956 27.9584C129.971 27.2917 129.821 26.7158 129.508 26.2295C129.109 25.604 128.496 25.2918 127.67 25.2918C126.916 25.2918 126.303 25.5966 125.834 26.2084C125.45 26.6947 125.222 27.278 125.152 27.9573H129.956V27.9584Z" fill="white"/>
<path d="M53.0639 11.4063C53.0639 12.6478 52.682 13.5823 51.9193 14.21C51.2128 14.789 50.2089 15.0791 48.9085 15.0791C48.2637 15.0791 47.712 15.0517 47.25 14.9968V8.21337C47.8526 8.11844 48.5017 8.06992 49.2028 8.06992C50.4415 8.06992 51.3751 8.33256 52.0048 8.85786C52.7101 9.45172 53.0639 10.3008 53.0639 11.4063ZM51.8684 11.4369C51.8684 10.632 51.6499 10.015 51.2128 9.58462C50.7758 9.15531 50.1375 8.94013 49.2969 8.94013C48.9399 8.94013 48.6359 8.96334 48.3838 9.01186V14.1688C48.5233 14.1899 48.7787 14.1994 49.1497 14.1994C50.0174 14.1994 50.6871 13.9642 51.1588 13.4937C51.6304 13.0233 51.8684 12.3377 51.8684 11.4369Z" fill="white"/>
<path d="M59.4012 12.49C59.4012 13.2548 59.1772 13.8813 58.7293 14.3729C58.2598 14.8781 57.6378 15.1302 56.861 15.1302C56.1123 15.1302 55.5162 14.8887 55.0716 14.4035C54.628 13.9193 54.4062 13.3086 54.4062 12.5723C54.4062 11.8023 54.6345 11.1705 55.0932 10.68C55.5519 10.1895 56.1686 9.94373 56.9454 9.94373C57.694 9.94373 58.2955 10.1853 58.751 10.6694C59.1837 11.1399 59.4012 11.7474 59.4012 12.49ZM58.2252 12.5259C58.2252 12.0671 58.1235 11.6736 57.9212 11.3456C57.6832 10.949 57.3446 10.7507 56.9043 10.7507C56.4488 10.7507 56.1026 10.949 55.8646 11.3456C55.6612 11.6736 55.5606 12.0734 55.5606 12.5459C55.5606 13.0048 55.6623 13.3982 55.8646 13.7263C56.1102 14.1229 56.452 14.3212 56.8934 14.3212C57.3262 14.3212 57.6659 14.1197 57.9104 13.7157C58.1203 13.3813 58.2252 12.9847 58.2252 12.5259Z" fill="white"/>
<path d="M67.9047 10.0453L66.309 15.0177H65.2704L64.6094 12.8585C64.4417 12.3195 64.3054 11.7836 64.1993 11.252H64.1788C64.0803 11.7984 63.944 12.3332 63.7688 12.8585L63.0666 15.0177H62.0162L60.5156 10.0453H61.6808L62.2574 12.4091C62.397 12.9682 62.5116 13.5008 62.6036 14.005H62.6242C62.7085 13.5894 62.8481 13.0599 63.045 12.4197L63.7688 10.0463H64.6927L65.3861 12.369C65.5538 12.9355 65.6901 13.4808 65.7951 14.0061H65.8265C65.9033 13.4945 66.019 12.9492 66.1726 12.369L66.7915 10.0463H67.9047V10.0453Z" fill="white"/>
<path d="M73.7827 15.0176H72.6489V12.1696C72.6489 11.292 72.3071 10.8532 71.6212 10.8532C71.2847 10.8532 71.0132 10.9735 70.8022 11.215C70.5934 11.4566 70.4874 11.7414 70.4874 12.0673V15.0165H69.3536V11.4661C69.3536 11.0294 69.3395 10.5557 69.3125 10.0431H70.3089L70.3619 10.8205H70.3933C70.5253 10.579 70.7222 10.3796 70.9807 10.2203C71.288 10.0347 71.632 9.9408 72.0085 9.9408C72.4845 9.9408 72.8804 10.0906 73.1953 10.3912C73.5869 10.7593 73.7827 11.3089 73.7827 12.0388V15.0176Z" fill="white"/>
<path d="M76.9061 15.018H75.7734V7.76404H76.9061V15.018Z" fill="white"/>
<path d="M83.5809 12.49C83.5809 13.2548 83.3569 13.8813 82.909 14.3729C82.4395 14.8781 81.8164 15.1302 81.0407 15.1302C80.2909 15.1302 79.6948 14.8887 79.2513 14.4035C78.8077 13.9193 78.5859 13.3086 78.5859 12.5723C78.5859 11.8023 78.8142 11.1705 79.2729 10.68C79.7316 10.1895 80.3483 9.94373 81.124 9.94373C81.8737 9.94373 82.4741 10.1853 82.9307 10.6694C83.3634 11.1399 83.5809 11.7474 83.5809 12.49ZM82.4038 12.5259C82.4038 12.0671 82.3021 11.6736 82.0998 11.3456C81.8629 10.949 81.5232 10.7507 81.0839 10.7507C80.6274 10.7507 80.2812 10.949 80.0443 11.3456C79.8409 11.6736 79.7403 12.0734 79.7403 12.5459C79.7403 13.0048 79.842 13.3982 80.0443 13.7263C80.2899 14.1229 80.6317 14.3212 81.0731 14.3212C81.5059 14.3212 81.8445 14.1197 82.089 13.7157C82.2999 13.3813 82.4038 12.9847 82.4038 12.5259Z" fill="white"/>
<path d="M89.0618 15.0174H88.0438L87.9594 14.4446H87.928C87.5796 14.9013 87.0831 15.1302 86.4383 15.1302C85.9569 15.1302 85.5674 14.9794 85.2742 14.6798C85.0081 14.4077 84.875 14.0691 84.875 13.6672C84.875 13.0596 85.1346 12.5966 85.6572 12.2759C86.1786 11.9552 86.9121 11.7981 87.8566 11.8055V11.7126C87.8566 11.0576 87.5039 10.7306 86.7975 10.7306C86.2944 10.7306 85.8508 10.854 85.4679 11.0987L85.2374 10.373C85.7113 10.0872 86.2966 9.94373 86.9868 9.94373C88.3196 9.94373 88.9882 10.6294 88.9882 12.0006V13.8318C88.9882 14.3286 89.0131 14.7241 89.0618 15.0174ZM87.8847 13.3086V12.5417C86.6341 12.5206 86.0088 12.855 86.0088 13.5438C86.0088 13.8033 86.0802 13.9974 86.2262 14.1271C86.3723 14.2568 86.5584 14.3212 86.7801 14.3212C87.029 14.3212 87.2616 14.2442 87.4736 14.0912C87.6867 13.9372 87.8176 13.7421 87.8663 13.5026C87.8782 13.4489 87.8847 13.3835 87.8847 13.3086Z" fill="white"/>
<path d="M95.509 15.018H94.5028L94.4498 14.2195H94.4185C94.0971 14.827 93.5497 15.1308 92.7805 15.1308C92.166 15.1308 91.6543 14.8956 91.2486 14.4252C90.8429 13.9547 90.6406 13.344 90.6406 12.594C90.6406 11.7892 90.8602 11.1373 91.3016 10.6394C91.729 10.1753 92.2526 9.94327 92.8757 9.94327C93.5605 9.94327 94.0398 10.1679 94.3124 10.6184H94.3341V7.76404H95.4689V13.6784C95.4689 14.1625 95.4819 14.6087 95.509 15.018ZM94.3341 12.921V12.0919C94.3341 11.9485 94.3233 11.8324 94.3027 11.7438C94.2389 11.478 94.1015 11.2544 93.8927 11.074C93.6817 10.8937 93.4275 10.8029 93.1343 10.8029C92.7113 10.8029 92.3802 10.9664 92.1368 11.2945C91.8956 11.6225 91.7733 12.0413 91.7733 12.5529C91.7733 13.0444 91.8891 13.4431 92.1217 13.7501C92.3673 14.0771 92.6983 14.2406 93.1127 14.2406C93.4848 14.2406 93.7823 14.1045 94.0084 13.8313C94.227 13.5792 94.3341 13.2754 94.3341 12.921Z" fill="white"/>
<path d="M105.206 12.491C105.206 13.2557 104.982 13.8823 104.534 14.3738C104.065 14.8791 103.444 15.1312 102.666 15.1312C101.918 15.1312 101.322 14.8896 100.876 14.4044C100.433 13.9203 100.211 13.3095 100.211 12.5733C100.211 11.8033 100.439 11.1714 100.898 10.681C101.357 10.1905 101.973 9.9447 102.751 9.9447C103.499 9.9447 104.101 10.1863 104.556 10.6704C104.988 11.1409 105.206 11.7484 105.206 12.491ZM104.031 12.5269C104.031 12.068 103.929 11.6746 103.727 11.3465C103.488 10.9499 103.15 10.7516 102.709 10.7516C102.255 10.7516 101.908 10.9499 101.669 11.3465C101.466 11.6746 101.365 12.0744 101.365 12.5469C101.365 13.0058 101.467 13.3992 101.669 13.7272C101.915 14.1239 102.257 14.3222 102.698 14.3222C103.131 14.3222 103.472 14.1207 103.716 13.7167C103.925 13.3823 104.031 12.9857 104.031 12.5269Z" fill="white"/>
<path d="M111.305 15.0176H110.172V12.1696C110.172 11.292 109.831 10.8532 109.144 10.8532C108.807 10.8532 108.536 10.9735 108.326 11.215C108.116 11.4566 108.011 11.7414 108.011 12.0673V15.0165H106.876V11.4661C106.876 11.0294 106.863 10.5557 106.836 10.0431H107.831L107.884 10.8205H107.916C108.049 10.579 108.246 10.3796 108.503 10.2203C108.811 10.0347 109.154 9.9408 109.532 9.9408C110.007 9.9408 110.403 10.0906 110.718 10.3912C111.11 10.7593 111.305 11.3089 111.305 12.0388V15.0176Z" fill="white"/>
<path d="M118.934 10.8734H117.686V13.2889C117.686 13.9028 117.907 14.2097 118.347 14.2097C118.55 14.2097 118.719 14.1929 118.852 14.1581L118.881 14.9966C118.657 15.0789 118.363 15.12 118 15.12C117.553 15.12 117.204 14.9871 116.952 14.7213C116.699 14.4555 116.574 14.0083 116.574 13.3807V10.8734H115.828V10.0454H116.574V9.134L117.685 8.80701V10.0443H118.933V10.8734H118.934Z" fill="white"/>
<path d="M124.929 15.018H123.794V12.1911C123.794 11.2998 123.452 10.8536 122.768 10.8536C122.242 10.8536 121.883 11.112 121.686 11.6289C121.652 11.7375 121.633 11.8704 121.633 12.0265V15.0169H120.5V7.76404H121.633V10.7608H121.654C122.011 10.2154 122.523 9.94327 123.186 9.94327C123.656 9.94327 124.044 10.0931 124.353 10.3937C124.737 10.7681 124.929 11.3251 124.929 12.0613V15.018Z" fill="white"/>
<path d="M131.128 12.2957C131.128 12.494 131.113 12.6606 131.086 12.7967H127.685C127.7 13.2883 127.863 13.6627 128.178 13.9222C128.465 14.1543 128.836 14.2703 129.291 14.2703C129.794 14.2703 130.253 14.1922 130.666 14.0351L130.843 14.803C130.36 15.0076 129.791 15.1099 129.132 15.1099C128.342 15.1099 127.72 14.8831 127.27 14.4296C126.818 13.976 126.594 13.3674 126.594 12.6037C126.594 11.8537 126.803 11.2293 127.223 10.7314C127.663 10.1998 128.257 9.93396 129.006 9.93396C129.74 9.93396 130.297 10.1998 130.673 10.7314C130.977 11.1533 131.128 11.6754 131.128 12.2957ZM130.046 12.0098C130.055 11.6818 129.98 11.3991 129.826 11.1607C129.629 10.8538 129.33 10.6998 128.924 10.6998C128.554 10.6998 128.252 10.8495 128.022 11.1502C127.834 11.3896 127.722 11.6754 127.685 12.0098H130.046Z" fill="white"/>
</svg>
