<svg width="73" height="73" viewBox="0 0 73 73" fill="none" xmlns="http://www.w3.org/2000/svg">
<circle cx="36.5" cy="36.5" r="36.5" fill="#866EE1"/>
<g clip-path="url(#clip0_6460_87822)">
<path d="M22.709 49.1445C24.6021 49.1445 26.1367 47.6099 26.1367 45.7168C26.1367 43.8237 24.6021 42.2891 22.709 42.2891C20.8159 42.2891 19.2812 43.8237 19.2812 45.7168C19.2812 47.6099 20.8159 49.1445 22.709 49.1445Z" fill="white"/>
<path d="M24.998 49.1445C24.4451 49.1445 20.9843 49.1445 20.4277 49.1445C18.5377 49.1445 17 50.6822 17 52.5723V54.8574C17 55.4884 17.5116 56 18.1426 56H27.2832C27.9142 56 28.4258 55.4884 28.4258 54.8574V52.5723C28.4258 50.6822 26.8881 49.1445 24.998 49.1445Z" fill="white"/>
<path d="M36.498 49.1445C38.3911 49.1445 39.9258 47.6099 39.9258 45.7168C39.9258 43.8237 38.3911 42.2891 36.498 42.2891C34.605 42.2891 33.0703 43.8237 33.0703 45.7168C33.0703 47.6099 34.605 49.1445 36.498 49.1445Z" fill="white"/>
<path d="M38.7871 49.1445H36.502H34.2168C32.3267 49.1445 30.7891 50.6822 30.7891 52.5723V54.8574C30.7891 55.4884 31.3006 56 31.9316 56H41.0723C41.7033 56 42.2148 55.4884 42.2148 54.8574V52.5723C42.2148 50.6822 40.6772 49.1445 38.7871 49.1445Z" fill="white"/>
<path d="M50.2871 49.1445C52.1802 49.1445 53.7148 47.6099 53.7148 45.7168C53.7148 43.8237 52.1802 42.2891 50.2871 42.2891C48.394 42.2891 46.8594 43.8237 46.8594 45.7168C46.8594 47.6099 48.394 49.1445 50.2871 49.1445Z" fill="white"/>
<path d="M52.5684 49.1445C52.0154 49.1445 48.5546 49.1445 47.998 49.1445C46.108 49.1445 44.5703 50.6822 44.5703 52.5723V54.8574C44.5703 55.4884 45.0819 56 45.7129 56H54.8535C55.4845 56 55.9961 55.4884 55.9961 54.8574V52.5723C55.9961 50.6822 54.4584 49.1445 52.5684 49.1445Z" fill="white"/>
<path d="M32.2094 33.5115H35.3593V28.4964L33.4074 26.5381C32.962 26.0911 32.9631 25.3677 33.4101 24.9223C33.857 24.4767 34.5805 24.478 35.0259 24.9249L36.4956 26.3995L37.9715 24.9236C38.4177 24.4774 39.1411 24.4774 39.5873 24.9236C40.0336 25.3699 40.0336 26.0933 39.5873 26.5395L37.6444 28.4824V33.5116H40.7867C43.0938 32.0514 44.4961 29.5346 44.4961 26.7598C44.4961 22.3496 40.9082 18.7617 36.498 18.7617C32.0879 18.7617 28.5 22.3496 28.5 26.7598C28.5 29.5345 29.9025 32.0514 32.2094 33.5115Z" fill="white"/>
<path d="M32.3125 38.7952C32.3125 39.4262 32.8241 39.9378 33.4551 39.9378H39.5488C40.1798 39.9378 40.6914 39.4262 40.6914 38.7952V35.7969H32.3125V38.7952Z" fill="white"/>
<path d="M46.8594 26.7598C46.8594 27.3908 47.3709 27.9023 48.002 27.9023H49.9062C50.5372 27.9023 51.0488 27.3908 51.0488 26.7598C51.0488 26.1288 50.5372 25.6172 49.9062 25.6172H48.002C47.3709 25.6172 46.8594 26.1288 46.8594 26.7598Z" fill="white"/>
<path d="M46.0387 36.2525C46.5252 36.6607 47.2454 36.592 47.6484 36.1117C48.054 35.6283 47.9909 34.9076 47.5076 34.502L46.0489 33.2781C45.5654 32.8725 44.8448 32.9355 44.4392 33.4189C44.0336 33.9023 44.0967 34.6231 44.58 35.0286L46.0387 36.2525Z" fill="white"/>
<path d="M26.9528 33.2781L25.4941 34.5021C25.0107 34.9077 24.9477 35.6284 25.3532 36.1118C25.7569 36.5928 26.4772 36.6601 26.963 36.2527L28.4217 35.0287C28.9051 34.623 28.9681 33.9023 28.5625 33.4189C28.1568 32.9355 27.4362 32.8725 26.9528 33.2781Z" fill="white"/>
<path d="M23.0957 27.9023H24.9999C25.6309 27.9023 26.1425 27.3908 26.1425 26.7598C26.1425 26.1288 25.6309 25.6172 24.9999 25.6172H23.0957C22.4647 25.6172 21.9531 26.1288 21.9531 26.7598C21.9531 27.3908 22.4647 27.9023 23.0957 27.9023Z" fill="white"/>
<path d="M25.494 19.0179L26.9527 20.2419C27.4342 20.6459 28.1552 20.5863 28.5625 20.101C28.9681 19.6176 28.905 18.8969 28.4216 18.4913L26.963 17.2674C26.4796 16.8617 25.7589 16.9247 25.3533 17.4082C24.9477 17.8916 25.0107 18.6122 25.494 19.0179Z" fill="white"/>
<path d="M46.0489 20.2419L47.5076 19.0179C47.991 18.6123 48.054 17.8915 47.6485 17.4081C47.2428 16.9248 46.5222 16.8618 46.0387 17.2673L44.58 18.4913C44.0967 18.8969 44.0336 19.6177 44.4392 20.101C44.8429 20.5821 45.5632 20.6494 46.0489 20.2419Z" fill="white"/>
</g>
<defs>
<clipPath id="clip0_6460_87822">
<rect width="39" height="39" fill="white" transform="translate(17 17)"/>
</clipPath>
</defs>
</svg>
