<svg width="73" height="73" viewBox="0 0 73 73" fill="none" xmlns="http://www.w3.org/2000/svg">
<circle cx="36.5" cy="36.5" r="36.5" fill="#866EE1"/>
<path d="M27.4273 34.0761C28.0526 34.7014 29.0808 34.7014 29.706 34.076C30.3343 33.4479 30.3342 32.4256 29.7059 31.7972L25.3257 27.4173C24.7005 26.7919 23.6723 26.7918 23.0471 27.4174C22.4219 28.0423 22.4217 29.0707 23.0471 29.6958L27.4273 34.0761Z" fill="white"/>
<path d="M23.527 37.9732C24.1524 38.5986 25.1803 38.5985 25.8056 37.9732C26.4309 37.3477 26.4308 36.3198 25.8056 35.6944L21.644 31.5331C21.342 31.2319 20.938 31.0659 20.5063 31.0659C19.6148 31.0659 18.9021 31.774 18.8985 32.6672C18.8966 33.1022 19.063 33.5091 19.3668 33.8128L23.527 37.9732Z" fill="white"/>
<path d="M35.2246 26.2816C35.85 26.9069 36.8781 26.9069 37.5035 26.2815C38.1316 25.6534 38.1315 24.6312 37.5033 24.0028L33.0622 19.5618C32.4368 18.9364 31.4089 18.9364 30.7836 19.5618C30.1555 20.1899 30.1555 21.2121 30.7836 21.8404L35.2246 26.2816Z" fill="white"/>
<path d="M31.3237 30.1785C31.9491 30.804 32.9767 30.8042 33.6022 30.1786C34.2274 29.5534 34.2279 28.5256 33.6023 27.9002L29.1612 23.4588C28.8589 23.1566 28.4544 22.9902 28.0219 22.9902C27.1274 22.9902 26.4141 23.7033 26.4141 24.5981C26.4141 25.0307 26.5805 25.4351 26.8825 25.7372L31.3237 30.1785Z" fill="white"/>
<path d="M54.1642 33.2551C54.7905 32.6251 54.7892 31.6082 54.1608 30.98C53.5315 30.3506 52.5121 30.35 51.8822 30.9799C51.4353 31.4268 50.7105 31.4269 50.2636 30.98C49.8167 30.533 49.8166 29.8083 50.2635 29.3614V29.3612C50.8909 28.7339 50.8926 27.7118 50.2635 27.0827C49.9613 26.7804 49.5567 26.614 49.1242 26.614C48.4019 26.614 47.9772 27.0828 47.9848 27.0828C47.5377 27.5295 46.8131 27.5296 46.3662 27.0827C45.9193 26.6357 45.9191 25.9112 46.366 25.4641C46.9944 24.8358 46.9944 23.8136 46.3663 23.1854C45.741 22.56 44.7129 22.56 44.0877 23.1854L43.8234 23.4498C43.3754 23.8978 42.6509 23.8964 42.2046 23.4501C41.7771 23.0227 41.7366 22.3096 42.2078 21.8281C42.8328 21.1996 42.8317 20.1798 42.2045 19.5527C41.5764 18.9244 40.5541 18.9245 39.9258 19.5528L38.1036 21.3699L39.118 22.3842C40.6387 23.9052 40.6386 26.3796 39.1182 27.9002C38.3835 28.6346 37.4042 29.0391 36.3598 29.0391C36.3598 31.1955 34.6267 32.9356 32.464 32.9364C32.4643 35.0741 30.745 36.8327 28.5668 36.8335C28.5671 38.975 26.8434 40.7308 24.6683 40.7308C23.6244 40.7308 22.6449 40.3263 21.9103 39.5918L20.8718 38.5532L17.3561 42.0613C16.8807 42.5356 16.8813 43.3106 17.3577 43.7838L27.1764 53.5383C27.6528 54.0116 28.4309 54.0104 28.9057 53.5355L32.922 49.5194C34.1384 48.303 35.4563 47.9542 37.0234 47.5948C38.711 47.2079 40.4561 46.8078 42.5671 44.6968C45.4275 41.8365 51.275 36.0897 54.1642 33.2551Z" fill="white"/>
<path d="M55.6404 42.088L52.0657 38.522C49.4772 41.068 46.1453 44.3524 44.1822 46.3155C42.5608 47.937 41.065 48.7428 39.7266 49.2214C39.984 49.4445 39.7046 49.1753 44.0911 53.5619C44.5659 54.0366 45.344 54.0379 45.8205 53.5647L55.6389 43.8103C56.1153 43.337 56.1159 42.562 55.6404 42.088Z" fill="white"/>
</svg>
