<svg width="73" height="73" viewBox="0 0 73 73" fill="none" xmlns="http://www.w3.org/2000/svg">
<circle cx="36.5" cy="36.5" r="36.5" fill="#866EE1"/>
<g clip-path="url(#clip0_6460_87826)">
<path d="M23.8936 33.9482V28.3877H23.0747C19.7251 28.3877 17 31.1127 17 34.4624V52.6484C17 53.1106 17.2784 53.5272 17.7054 53.704C17.8467 53.7626 17.9952 53.791 18.1423 53.791C18.4397 53.791 18.732 53.675 18.9505 53.4563L23.2053 49.2017H40.7466C44.0962 49.2017 46.8213 46.4766 46.8213 43.127V42.3081H32.2534C27.6437 42.3081 23.8936 38.5579 23.8936 33.9482Z" fill="white"/>
<path d="M49.9263 19.209H32.2544C28.9048 19.209 26.1797 21.934 26.1797 25.2837V33.9482C26.1797 37.2979 28.9048 40.0229 32.2544 40.0229H49.7958L54.0504 44.2776C54.269 44.4962 54.5613 44.6124 54.8586 44.6123C55.0058 44.6123 55.1543 44.5839 55.2955 44.5253C55.7225 44.3484 56.0009 43.9319 56.0009 43.4697V25.2837C56.001 21.934 53.2759 19.209 49.9263 19.209ZM34.2063 30.6729C33.5658 30.6729 33.0914 30.1493 33.0637 29.5303C33.0361 28.9132 33.6087 28.3877 34.2063 28.3877C34.8468 28.3877 35.3212 28.9112 35.3489 29.5303C35.3765 30.1473 34.8039 30.6729 34.2063 30.6729ZM41.0903 30.6729C40.4498 30.6729 39.9755 30.1493 39.9478 29.5303C39.9201 28.9132 40.4927 28.3877 41.0903 28.3877C41.7309 28.3877 42.2052 28.9112 42.2329 29.5303C42.2606 30.1473 41.688 30.6729 41.0903 30.6729ZM47.9744 30.6729C47.3338 30.6729 46.8595 30.1493 46.8318 29.5303C46.8041 28.9132 47.3767 28.3877 47.9744 28.3877C48.6149 28.3877 49.0892 28.9112 49.1169 29.5303C49.1446 30.1473 48.572 30.6729 47.9744 30.6729Z" fill="white"/>
</g>
<defs>
<clipPath id="clip0_6460_87826">
<rect width="39" height="39" fill="white" transform="translate(17 17)"/>
</clipPath>
</defs>
</svg>
