<svg width="386" height="213" viewBox="0 0 386 213" fill="none" xmlns="http://www.w3.org/2000/svg">
<path d="M29.5842 211.923C29.5842 211.923 -16.2248 158.574 6.16281 103.654C20.7569 67.854 75.4966 48.2378 106.389 67.854C119.546 76.209 161.759 68.1358 184.298 33.5464C228.096 -33.669 380.955 7.15141 353.126 110.351C339.658 160.291 394.112 162.107 366.366 212.028L29.5842 211.923Z" fill="#EBF3FA"/>
<path d="M63.4919 124.122C63.4919 124.122 58.8719 118.911 63.2072 115.601C63.2072 115.601 66.3739 113.748 68.9563 113.898C68.9563 113.898 65.2979 119.829 66.4815 120.419C67.6651 121.009 70.065 113.526 70.065 113.526C70.065 113.526 77.2715 112.85 79.5896 113.927C79.5896 113.927 73.4292 118.801 74.7272 119.09C76.0252 119.38 82.6787 114.597 82.6787 114.597C82.6787 114.597 89.3853 115.701 89.0271 119.656C88.6689 123.612 86.3589 124.833 85.3428 124.729C84.3268 124.623 78.3856 122.431 78.2562 123.236C78.1268 124.04 81.7035 126.67 84.2083 126.792C84.2083 126.792 79.4793 131.834 76.3371 130.379C73.1949 128.924 72.9266 126.618 70.968 125.753C69.0095 124.888 67.3369 124.891 68.1459 125.773C68.955 126.655 72.5003 127.512 73.6199 129.428C74.7395 131.344 75.7447 132.636 72.4935 132.163C69.2424 131.691 63.9577 129.39 63.7248 126.757C63.4919 124.122 63.4919 124.122 63.4919 124.122Z" fill="#C8DBF4"/>
<path d="M85.7378 119.765C85.7378 119.765 67.5221 119.087 63.4987 124.122C63.4987 124.122 62.6093 126.698 59.8716 129.044L59.4453 130.169C59.4453 130.169 62.6025 126.951 63.7316 126.757C63.7316 126.757 61.9651 120.517 85.7378 119.765Z" fill="#C8DBF4"/>
<path d="M59.8689 129.045C59.8689 129.045 55.9585 131.84 55.6875 136.835L56.3971 136.897C56.3971 136.897 57.6461 131.732 59.903 129.712C62.1598 127.692 59.8689 129.045 59.8689 129.045Z" fill="#C8DBF4"/>
<path d="M47.3399 117.57C47.3399 117.57 54.6893 113.591 51.2598 108.192C51.2598 108.192 48.5166 104.876 45.576 104.024C45.576 104.024 47.1437 112.076 45.576 112.266C44.0083 112.455 44.4987 103.171 44.4987 103.171C44.4987 103.171 36.7569 99.5707 33.7196 99.8551C33.7196 99.8551 38.5208 107.718 36.9531 107.528C35.3854 107.338 29.9959 99.3811 29.9959 99.3811C29.9959 99.3811 22.0593 97.9602 20.7845 102.507C19.511 107.054 21.569 109.328 22.7444 109.613C23.9199 109.897 31.4655 109.802 31.2693 110.749C31.0732 111.696 25.9779 113.213 23.1367 112.359C23.1367 112.359 26.2721 119.843 30.3881 119.465C34.5042 119.085 35.7776 116.623 38.3246 116.433C40.873 116.244 42.7335 116.908 41.46 117.57C40.1865 118.234 35.8743 117.787 33.8163 119.479C31.7583 121.17 30.0926 122.213 33.9144 122.97C37.7362 123.728 44.5954 123.254 45.9669 120.413C47.3399 117.57 47.3399 117.57 47.3399 117.57Z" fill="#C8DBF4"/>
<path d="M24.4141 103.928C24.4141 103.928 44.9915 110.369 47.3437 117.57C47.3437 117.57 47.2456 120.791 49.3037 124.485V125.906C49.3037 125.906 47.1476 121.075 45.9722 120.411C45.9708 120.411 50.5758 114.159 24.4141 103.928Z" fill="#C8DBF4"/>
<path d="M49.3031 124.485C49.3031 124.485 52.4766 129.144 50.6678 134.816L49.852 134.604C49.852 134.604 50.6447 128.357 48.9844 125.215C47.3227 122.073 49.3031 124.485 49.3031 124.485Z" fill="#C8DBF4"/>
<path d="M59.0327 112.082C59.0327 112.082 49.3446 106.838 53.8665 99.7191C53.8665 99.7191 57.4827 95.3487 61.3577 94.2241C61.3577 94.2241 59.2915 104.839 61.3577 105.089C63.4239 105.339 62.7783 93.1009 62.7783 93.1009C62.7783 93.1009 72.9825 88.3552 76.9869 88.7305C76.9869 88.7305 70.6576 99.0949 72.7237 98.8461C74.7899 98.5959 81.8942 88.1063 81.8942 88.1063C81.8942 88.1063 92.3573 86.2325 94.0353 92.2279C95.7133 98.2232 93.0015 101.219 91.4516 101.594C89.9016 101.968 79.9561 101.844 80.2135 103.093C80.4723 104.341 87.1884 106.34 90.934 105.215C90.934 105.215 86.8003 115.081 81.3753 114.582C75.9504 114.083 74.271 110.835 70.9123 110.585C67.5535 110.335 65.0991 111.209 66.7785 112.084C68.4579 112.958 74.1416 112.371 76.8534 114.6C79.5652 116.829 81.7621 118.203 76.724 119.202C71.6859 120.202 62.6448 119.576 60.836 115.83C59.0327 112.082 59.0327 112.082 59.0327 112.082Z" fill="#D4E4F8"/>
<path d="M89.2537 94.0986C89.2537 94.0986 62.129 102.591 59.0291 112.081C59.0291 112.081 59.1585 116.326 56.4453 121.197V123.071C56.4453 123.071 59.2865 116.701 60.8365 115.828C60.8365 115.828 54.7659 107.586 89.2537 94.0986Z" fill="#D4E4F8"/>
<path d="M56.4469 121.198C56.4469 121.198 52.2641 127.34 54.649 134.815L55.725 134.536C55.725 134.536 54.6803 126.302 56.8691 122.161C59.0565 118.018 56.4469 121.198 56.4469 121.198Z" fill="#D4E4F8"/>
<path d="M58.7036 151.026C69.1844 151.026 77.6793 142.812 77.6793 132.68H39.7266C39.7266 142.812 48.2229 151.026 58.7036 151.026Z" fill="#D4E4F8"/>
<path d="M77.9459 151.96H39.4688C39.4688 150.71 40.5175 149.696 41.8101 149.696H75.6046C76.8971 149.696 77.9459 150.71 77.9459 151.96Z" fill="#D4E4F8"/>
<path d="M78.1099 132.68H39.1016V133.242H78.1099V132.68Z" fill="#9FC1F4"/>
<path d="M156.62 211.542L156.714 211.541C157.481 211.527 158.073 210.92 158.001 210.224L152.885 160.835L148.422 161.219L155.767 210.874C155.824 211.261 156.191 211.548 156.62 211.542Z" fill="#8CB4F4"/>
<path d="M107.364 211.542L107.27 211.541C106.503 211.527 105.91 210.92 105.983 210.224L111.098 160.835L115.562 161.219L108.216 210.874C108.16 211.261 107.793 211.548 107.364 211.542Z" fill="#8CB4F4"/>
<path d="M192.706 211.542L192.8 211.541C193.567 211.527 194.159 210.92 194.087 210.224L188.971 160.835L184.508 161.219L191.853 210.874C191.91 211.261 192.277 211.548 192.706 211.542Z" fill="#8CB4F4"/>
<path d="M108.89 153.65L99.8093 110.3C98.6434 104.431 103.675 99.0641 110.206 99.2089L127.717 99.5961C133.758 99.7291 139.01 103.639 140.689 109.249L153.973 153.65H108.89Z" fill="#8CB4F4"/>
<path d="M114.382 153.65L105.301 110.3C104.136 104.431 109.167 99.0641 115.698 99.2089L133.209 99.5961C139.25 99.7291 144.502 103.639 146.181 109.249L159.465 153.65H114.382Z" fill="#8CB4F4"/>
<path d="M111.421 161.556H180.702C182.094 161.556 183.233 160.456 183.233 159.11V156.097C183.233 154.751 182.094 153.65 180.702 153.65H108.891V159.11C108.891 160.456 110.029 161.556 111.421 161.556Z" fill="#8CB4F4"/>
<path d="M143.93 161.556H188.095C189.215 161.556 190.133 160.668 190.133 159.585V155.62C190.133 154.536 189.215 153.648 188.095 153.648H143.93C142.809 153.648 141.891 154.536 141.891 155.62V159.585C141.891 160.67 142.807 161.556 143.93 161.556Z" fill="#8CB4F4"/>
<path d="M88.2198 153.086V154.564C88.2198 155.082 88.0468 155.505 87.8343 155.505H32.0105C31.7993 155.505 31.625 155.082 31.625 154.564V153.086C31.625 152.568 31.798 152.146 32.0105 152.146H87.8343C88.0454 152.146 88.2198 152.57 88.2198 153.086Z" fill="#9ABFE2"/>
<path d="M88.2197 153.086V154.564C88.2197 155.082 88.0603 155.505 87.8669 155.505H43.5481C43.3533 155.505 43.1953 155.082 43.1953 154.564V153.086C43.1953 152.568 43.3547 152.146 43.5481 152.146H87.8656C88.0603 152.146 88.2197 152.57 88.2197 153.086Z" fill="#BAD4F4"/>
<path d="M74.0917 155.506H34.4609V211.352H74.0917V155.506Z" fill="#C8DBF4"/>
<path d="M85.1933 155.506H45.5625V211.352H85.1933V155.506Z" fill="#DFEBFD"/>
<path d="M83.0671 208.268H47.6953V157.083H83.0671V208.268ZM48.0767 207.899H82.6843V157.453H48.0767V207.899Z" fill="#B7D3F3"/>
<path d="M82.8732 174.016H47.8828V174.384H82.8732V174.016Z" fill="#B7D3F3"/>
<path d="M82.8732 191.277H47.8828V191.646H82.8732V191.277Z" fill="#B7D3F3"/>
<path d="M68.9646 160.384H62.4718C62.1572 160.384 61.8984 160.135 61.8984 159.83C61.8984 159.526 62.1559 159.275 62.4718 159.275H68.9646C69.2792 159.275 69.538 159.524 69.538 159.83C69.538 160.135 69.2806 160.384 68.9646 160.384Z" fill="#B7D3F3"/>
<path d="M68.9646 177.265H62.4718C62.1572 177.265 61.8984 177.016 61.8984 176.711C61.8984 176.406 62.1559 176.156 62.4718 176.156H68.9646C69.2792 176.156 69.538 176.405 69.538 176.711C69.538 177.015 69.2806 177.265 68.9646 177.265Z" fill="#B7D3F3"/>
<path d="M68.9646 194.862H62.4718C62.1572 194.862 61.8984 194.613 61.8984 194.307C61.8984 194.003 62.1559 193.753 62.4718 193.753H68.9646C69.2792 193.753 69.538 194.002 69.538 194.307C69.538 194.613 69.2806 194.862 68.9646 194.862Z" fill="#B7D3F3"/>
<path d="M243.802 55.0948H218.682C217.528 55.0948 216.586 54.1822 216.586 53.0682V29.6281C216.586 28.5128 217.53 27.6016 218.682 27.6016H243.802C244.955 27.6016 245.898 28.5141 245.898 29.6281V53.0682C245.898 54.1822 244.955 55.0948 243.802 55.0948Z" fill="#C0D8FB"/>
<path d="M242.71 53.9045H219.767C218.714 53.9045 217.852 53.0709 217.852 52.0531V30.6434C217.852 29.6255 218.714 28.792 219.767 28.792H242.71C243.763 28.792 244.625 29.6255 244.625 30.6434V52.0531C244.625 53.0709 243.763 53.9045 242.71 53.9045Z" fill="#DFEBFD"/>
<path d="M231.24 31.8875C231.576 31.8875 231.848 31.6245 231.848 31.3002C231.848 30.9758 231.576 30.7129 231.24 30.7129C230.905 30.7129 230.633 30.9758 230.633 31.3002C230.633 31.6245 230.905 31.8875 231.24 31.8875Z" fill="#B7D3F3"/>
<path d="M235.53 32.1311C235.693 31.848 236.062 31.7453 236.355 31.9033C236.648 32.0613 236.754 32.4182 236.591 32.7013C236.427 32.9844 236.058 33.0871 235.766 32.9291C235.473 32.7711 235.366 32.4142 235.53 32.1311Z" fill="#B7D3F3"/>
<path d="M239.732 35.3543C240.014 35.1792 240.389 35.2568 240.571 35.5294C240.752 35.802 240.671 36.1654 240.389 36.3406C240.108 36.5157 239.732 36.438 239.55 36.1654C239.368 35.8942 239.45 35.5307 239.732 35.3543Z" fill="#B7D3F3"/>
<path d="M241.811 40.3457C242.146 40.3457 242.418 40.6091 242.418 40.933C242.418 41.2569 242.146 41.5203 241.811 41.5203C241.476 41.5203 241.203 41.2569 241.203 40.933C241.204 40.6091 241.476 40.3457 241.811 40.3457Z" fill="#B7D3F3"/>
<path d="M240.747 46.1367C240.984 46.3658 240.984 46.7371 240.747 46.9663C240.51 47.1954 240.126 47.1954 239.889 46.9663C239.652 46.7371 239.652 46.3658 239.889 46.1367C240.126 45.9076 240.51 45.9076 240.747 46.1367Z" fill="#B7D3F3"/>
<path d="M236.934 49.833C237.171 50.0621 237.171 50.4334 236.934 50.6626C236.697 50.8917 236.313 50.8917 236.076 50.6626C235.839 50.4334 235.839 50.0621 236.076 49.833C236.313 49.6039 236.697 49.6039 236.934 49.833Z" fill="#B7D3F3"/>
<path d="M230.633 51.7377C230.633 51.4137 230.905 51.1504 231.24 51.1504C231.575 51.1504 231.848 51.4137 231.848 51.7377C231.848 52.0616 231.575 52.325 231.24 52.325C230.905 52.325 230.633 52.0616 230.633 51.7377Z" fill="#B7D3F3"/>
<path d="M226.927 32.1311C226.763 31.848 226.394 31.7453 226.101 31.9033C225.809 32.0613 225.702 32.4182 225.866 32.7013C226.029 32.9844 226.398 33.0871 226.691 32.9291C226.985 32.7711 227.09 32.4142 226.927 32.1311Z" fill="#B7D3F3"/>
<path d="M222.733 35.3543C222.451 35.1792 222.075 35.2568 221.894 35.5294C221.712 35.802 221.793 36.1654 222.075 36.3406C222.357 36.5157 222.733 36.438 222.914 36.1654C223.095 35.8942 223.013 35.5307 222.733 35.3543Z" fill="#B7D3F3"/>
<path d="M220.654 40.3457C220.319 40.3457 220.047 40.6091 220.047 40.933C220.047 41.2569 220.319 41.5203 220.654 41.5203C220.989 41.5203 221.262 41.2569 221.262 40.933C221.262 40.6091 220.989 40.3457 220.654 40.3457Z" fill="#B7D3F3"/>
<path d="M221.717 46.1367C221.48 46.3658 221.48 46.7371 221.717 46.9663C221.954 47.1954 222.338 47.1954 222.575 46.9663C222.812 46.7371 222.812 46.3658 222.575 46.1367C222.339 45.9076 221.954 45.9076 221.717 46.1367Z" fill="#B7D3F3"/>
<path d="M225.959 50.8347C226.295 50.8347 226.566 50.5718 226.566 50.2474C226.566 49.9231 226.295 49.6602 225.959 49.6602C225.624 49.6602 225.352 49.9231 225.352 50.2474C225.352 50.5718 225.624 50.8347 225.959 50.8347Z" fill="#B7D3F3"/>
<path d="M231.078 40.933C231.078 40.6091 231.351 40.3457 231.686 40.3457C232.021 40.3457 232.293 40.6091 232.293 40.933C232.293 41.2569 232.021 41.5203 231.686 41.5203C231.351 41.5203 231.078 41.2569 231.078 40.933Z" fill="#B7D3F3"/>
<path d="M231.768 33.5986H231.602V40.9331H231.768V33.5986Z" fill="#B7D3F3"/>
<path d="M235.483 37.6751L231.461 40.7275L231.768 41.1056L235.79 38.0532L235.483 37.6751Z" fill="#B7D3F3"/>
<path d="M169.246 144.579C165.498 150.885 160.784 153.32 160.784 153.32H141.172C141.172 153.32 172.105 139.768 169.246 144.579Z" fill="#233862"/>
<path d="M193.44 207.234C193.228 209.224 196.091 209.737 199.41 209.932C202.729 210.127 201.719 210.774 206.261 211.618C210.803 212.462 212.641 211.277 212.977 210.685C213.277 210.161 211.17 209.315 208.925 208.359C208.642 208.239 208.36 208.116 208.077 207.994C205.55 206.889 204.151 204.673 202.195 202.612C200.343 200.661 198.631 194.455 198.631 194.455L192.461 193.114C192.461 193.114 194.136 198.701 194.712 201.085C195.052 202.487 194.511 204.045 194.033 205.23C193.774 205.873 193.514 206.532 193.44 207.234Z" fill="#FFB27D"/>
<path d="M199.409 209.931C202.728 210.126 201.718 210.773 206.26 211.617C210.803 212.461 212.64 211.276 212.976 210.684C213.276 210.16 211.169 209.314 208.924 208.358L208.889 208.394C208.889 208.394 205.677 209.412 201.994 208.402C198.992 207.581 196.101 205.811 194.032 205.228C193.775 205.873 193.514 206.532 193.441 207.233C193.228 209.223 196.09 209.736 199.409 209.931Z" fill="#0F2549"/>
<path d="M184.089 138.119C180.769 135.865 158.805 131.847 147.597 130.684L135.208 120.287C135.208 120.287 124.663 135.387 124.579 146.939C124.539 152.326 127.105 152.861 127.106 152.862C127.106 152.862 166.822 153.146 168.562 153.32C171.412 153.604 175.171 160.468 176.109 166.718C177.049 172.969 193.61 198.392 193.61 198.392C193.61 198.392 197.064 199.462 198.66 199.372C200.378 199.275 201.173 198.719 201.173 198.719C201.173 198.719 191.578 143.202 184.089 138.119Z" fill="#6650BC"/>
<path d="M183.168 207.234C182.956 209.224 185.819 209.737 189.138 209.932C192.457 210.127 191.447 210.774 195.989 211.618C200.531 212.462 202.369 211.277 202.705 210.685C203.005 210.161 200.898 209.315 198.653 208.359C198.371 208.239 198.088 208.116 197.804 207.994C195.278 206.889 193.879 204.673 191.923 202.612C190.071 200.661 188.359 194.455 188.359 194.455L182.188 193.114C182.188 193.114 183.863 198.701 184.439 201.085C184.778 202.487 184.237 204.045 183.759 205.23C183.502 205.873 183.242 206.532 183.168 207.234Z" fill="#FFB27D"/>
<path d="M189.136 209.931C192.455 210.126 191.445 210.773 195.987 211.617C200.529 212.461 202.367 211.276 202.703 210.684C203.003 210.16 200.896 209.314 198.651 208.358L198.616 208.394C198.616 208.394 195.404 209.412 191.721 208.402C188.719 207.581 185.828 205.811 183.759 205.228C183.501 205.873 183.241 206.532 183.168 207.233C182.954 209.223 185.817 209.736 189.136 209.931Z" fill="#233862"/>
<path d="M173.722 138.119C170.837 136.161 162.161 134.643 152.585 133.516C149.937 133.203 147.763 131.343 147.117 128.841L124.841 120.287C124.841 120.287 114.296 135.387 114.211 146.939C114.172 152.326 116.738 152.861 116.739 152.862C116.739 152.862 156.455 153.146 158.195 153.32C161.045 153.604 164.804 160.468 165.742 166.718C166.682 172.969 183.243 198.392 183.243 198.392C183.243 198.392 186.697 199.462 188.293 199.372C190.011 199.275 190.806 198.719 190.806 198.719C190.806 198.719 181.211 143.202 173.722 138.119Z" fill="#866EE1"/>
<path d="M143.918 57.5487C140.858 55.9949 136.199 55.7842 135.442 55.6868C126.387 54.5109 120.938 67.2311 120.617 71.0853C120.025 78.1894 116.138 79.2731 110.667 83.7225C99.6959 92.6438 102.913 103.011 108.913 106.862C112.513 109.173 118.857 106.862 118.857 106.862C118.947 106.923 136.209 97.533 144.718 93.0033C157.474 91.2493 151.718 61.5083 143.918 57.5487Z" fill="#233862"/>
<path d="M142.031 88.6261C142.07 88.6459 138.007 90.4328 135.073 89.4952C132.314 88.6169 129.884 84.6007 129.922 84.5941C131.12 84.4269 132.337 83.2839 132.678 76.5156L133.208 76.6447L142.125 78.824C142.125 78.824 141.772 81.555 141.626 84.1372C141.505 86.3059 141.529 88.3693 142.031 88.6261Z" fill="#FFB27D"/>
<path d="M142.122 78.8241C142.122 78.8241 142.122 79.3864 141.789 81.9265C136.745 80.6966 134.522 79.0796 132.953 77.2295L142.122 78.8241Z" fill="#ED975D"/>
<path d="M144.029 79.1692C144.029 79.1692 132.238 81.0258 131.155 73.9086C130.073 66.7913 127.823 62.2379 135.304 60.7512C142.787 59.2659 144.667 61.7731 145.626 64.063C146.584 66.3529 147.068 78.5029 144.029 79.1692Z" fill="#FFB27D"/>
<path d="M144.037 60.4527C144.037 60.4527 138.682 68.6247 133.902 70.5604C129.122 72.4961 126.773 71.5137 126.773 71.5137C126.773 71.5137 128.949 68.3258 129.515 64.0449C129.683 62.7834 130.533 61.701 131.754 61.2283C135.184 59.8997 141.82 57.806 144.037 60.4527Z" fill="#233862"/>
<path d="M139.336 61.2428C139.336 61.2428 142.474 62.7979 143.767 64.2569C145.014 65.6632 146.455 69.4819 146.352 71.1964C146.352 71.1964 147.9 62.9796 144.675 60.1551C141.256 57.1607 139.336 61.2428 139.336 61.2428Z" fill="#233862"/>
<path d="M151.46 106.013C151.102 129.186 151.362 124.343 148.74 126.542C148.108 127.071 146.332 127.387 143.995 127.536C136.645 128.007 123.727 126.837 123.235 125.524C121.539 120.981 122.736 119.569 121.323 112.613C121.175 111.873 120.993 111.072 120.779 110.2C119.6 105.423 118.453 103.797 122.636 96.1226C126.43 89.1699 130.891 83.5222 131.246 83.725C141.256 89.4702 141.599 84.6547 141.599 84.6547C141.599 84.6547 151.636 94.711 151.46 106.013Z" fill="white"/>
<path d="M141.602 84.6553C141.602 84.6553 151.847 86.3342 153.056 90.6216C154.266 94.9091 161.384 120.114 161.384 120.114C161.384 120.114 156.148 121.024 153.729 118.685C151.31 116.346 145.312 96.9883 145.312 96.9883L141.602 84.6553Z" fill="white"/>
<path d="M144 127.538C136.651 128.009 123.732 126.839 123.24 125.526C121.545 120.983 122.742 119.571 121.328 112.615L124.873 102.964C124.873 102.964 124.288 113.71 127.565 116.537C130.839 119.363 140.986 121.994 142.58 124.355C143.348 125.488 143.853 126.624 144 127.538Z" fill="#EBF3FF"/>
<path d="M135.578 123.017C135.578 123.017 142.83 121.456 143.998 122.078C145.168 122.699 148.027 124.966 148.385 125.754C148.743 126.543 145.781 125.157 144.817 124.906C144.193 124.744 142.55 125.296 141.737 125.558C138.316 126.662 136.218 126.094 136.218 126.094L135.578 123.017Z" fill="#FFB27D"/>
<path d="M131.248 83.7256C131.248 83.7256 120.987 84.305 117.616 88.8505C112.872 95.2475 103.46 122.512 108.854 126.147C114.929 130.242 136.499 127.219 136.499 127.219C136.499 127.219 137.217 123.976 136.218 122.406C135.22 120.837 118.989 118.302 118.24 117.578C117.491 116.853 127.604 103.455 127.604 101.282C127.604 99.1096 131.248 83.7256 131.248 83.7256Z" fill="white"/>
<path d="M144.352 124.029C144.352 124.029 145.87 125.924 146.369 126.151C146.867 126.377 147.189 126.321 147.189 126.321L146.164 124.539L144.352 124.029Z" fill="#FFB27D"/>
<path d="M144 122.078L148.417 124.152C148.417 124.152 148.229 124.45 147.686 124.426C147.142 124.402 145.769 123.916 145.769 123.916L144 122.078Z" fill="#FFB27D"/>
<path d="M160.265 126.996H139.75C139.75 126.122 140.483 125.414 141.386 125.414H160.265V126.996Z" fill="#ED7D2B"/>
<path d="M160.203 105.395H191.921L184.312 126.995H152.391L160.203 105.395Z" fill="#ED7D2B"/>
<path d="M192.391 105.395L184.782 126.995H152.859L160.673 105.395H192.391Z" fill="#F99746"/>
<path d="M175.289 115.995C175.092 116.82 174.24 117.489 173.386 117.489C172.532 117.489 172 116.82 172.197 115.995C172.395 115.169 173.246 114.5 174.1 114.5C174.954 114.5 175.487 115.169 175.289 115.995Z" fill="white"/>
<path d="M132.668 131.854H271.661C272.245 131.854 272.719 131.396 272.719 130.831V128.018C272.719 127.453 272.245 126.995 271.661 126.995H132.668C132.083 126.995 131.609 127.453 131.609 128.018V130.831C131.609 131.396 132.083 131.854 132.668 131.854Z" fill="#182D4F"/>
<path d="M275.062 211.903L275.122 211.896C275.834 211.81 276.338 211.197 276.249 210.524L263.862 129.468L259.328 129.593L273.902 211.088C273.994 211.609 274.507 211.97 275.062 211.903Z" fill="#182D4F"/>
<path d="M128.009 211.903L127.949 211.896C127.237 211.81 126.733 211.197 126.823 210.524L139.209 129.468L143.743 129.593L129.17 211.088C129.078 211.609 128.566 211.97 128.009 211.903Z" fill="#182D4F"/>
<path d="M156.681 211.903L156.621 211.896C155.909 211.81 155.405 211.197 155.495 210.524L167.881 129.468L172.415 129.593L157.842 211.088C157.749 211.609 157.237 211.97 156.681 211.903Z" fill="#182D4F"/>
<path d="M385.471 212.57H0.525741C0.236992 212.57 0 212.341 0 212.062V211.646C0 211.367 0.236992 211.138 0.525741 211.138H385.47C385.759 211.138 385.996 211.367 385.996 211.646V212.062C385.997 212.343 385.76 212.57 385.471 212.57Z" fill="#2E3552"/>
<path d="M229.75 211.837H254.328C255.51 210.442 255.074 205.296 254.896 203.615C254.859 203.276 254.833 203.079 254.833 203.079C254.833 203.079 246.44 196.588 245.287 201.558C245.251 201.713 245.209 201.866 245.163 202.016C243.711 206.664 237.195 208.776 233.433 209.365C230.988 209.751 230.084 210.979 229.75 211.837Z" fill="#233862"/>
<path d="M296.815 134.625C295.928 134.625 254.713 142.106 247.896 150.264C244.491 154.34 243.984 201.41 243.984 201.41C243.984 201.41 248.197 206.46 257.297 203.527C257.297 203.527 263.968 171.323 263.476 161.556C263.34 158.855 291.636 161.165 296.815 159.869C301.993 158.573 314.647 147.681 311.859 142.376C309.071 137.069 296.815 134.625 296.815 134.625Z" fill="#7156D6"/>
<path d="M248.079 123.1C248.079 123.1 239.765 123.208 237.8 124.023C235.834 124.838 231.845 126.708 232.913 126.995C233.981 127.282 239.073 126.876 240.174 127.039C241.274 127.203 242.631 126.995 243.305 126.995C243.979 126.995 247.123 126.995 247.123 126.995L248.079 123.1Z" fill="#FFB27D"/>
<path d="M238.354 103.811C238.354 103.811 235.52 101.853 232.767 101.472C231.197 101.255 229.671 100.985 228.749 100.67C226.209 99.8051 221.127 95.3873 221.513 94.8698C222.746 93.2093 228.679 96.7239 229.714 96.3459C230.749 95.968 227.724 93.8888 228.775 93.1567C229.325 92.7748 230.611 94.6894 231.661 94.8817C233.083 95.1424 234.195 97.0833 234.624 97.1847C235.457 97.3822 239.108 100.007 239.108 100.007L238.354 103.811Z" fill="#FFB27D"/>
<path d="M292.71 80.9443C292.71 80.9443 286.382 82.8405 280.146 99.4399C273.911 116.039 271.544 116.936 269.277 117.587C267.011 118.238 247.117 122.068 247.117 122.068V126.994H277.77C277.77 126.994 289.264 116.423 292.71 109.307C296.155 102.192 292.71 80.9443 292.71 80.9443Z" fill="#ED7D2B"/>
<path d="M218.891 211.837H243.468C244.651 210.442 244.215 205.296 244.036 203.615C244 203.276 243.974 203.079 243.974 203.079C243.974 203.079 235.581 196.588 234.427 201.558C234.392 201.713 234.35 201.866 234.303 202.016C232.851 206.664 226.335 208.776 222.574 209.365C220.129 209.751 219.224 210.979 218.891 211.837Z" fill="#1B3051"/>
<path d="M284.674 134.625C283.786 134.625 242.572 142.106 235.755 150.264C232.35 154.34 231.844 201.41 231.844 201.41C231.844 201.41 236.058 206.46 245.156 203.527C245.156 203.527 251.827 171.323 251.336 161.556C251.199 158.855 279.495 161.165 284.674 159.869C289.852 158.573 302.507 147.681 299.719 142.376C296.929 137.069 284.674 134.625 284.674 134.625Z" fill="#866EE1"/>
<path d="M287.251 86.2045C290.216 85.9674 293.324 85.2037 296.011 84.361C299.37 83.3075 302.076 81.7669 300.333 78.8002C298.726 76.0652 296.123 69.9553 296.298 64.8936L290.049 69.763L285.804 73.0695C285.804 73.0695 285.822 75.0197 286.286 78.4367C286.371 79.0596 286.47 79.7324 286.587 80.4501C286.681 81.0308 286.406 81.6102 285.89 81.9196C285.857 81.9394 285.826 81.9578 285.795 81.9776C283.682 83.2588 284.768 86.4033 287.251 86.2045Z" fill="#FFB27D"/>
<path d="M285.805 72.2646C285.805 72.2646 285.588 72.973 285.961 75.5868C289.746 74.9903 293.284 72.071 293.284 72.071C291.356 71.5601 290.656 69.5467 289.221 69.735L285.805 72.2646Z" fill="#ED975D"/>
<path d="M282.301 72.8609C282.301 72.8609 296.858 75.1995 298.226 66.4113C299.592 57.6243 302.392 52.0082 293.155 50.1437C283.918 48.2791 281.586 51.3696 280.393 54.1954C279.198 57.0199 278.55 72.0261 282.301 72.8609Z" fill="#FFB27D"/>
<path d="M278.256 50.3061C277.63 52.4222 279.303 54.9991 282.112 55.8485C286.281 57.1073 285.359 62.0519 287.235 61.9847C289.111 61.9176 289.868 59.1431 291.544 61.3592C292.972 63.2501 290.355 65.4913 290.534 66.5289C290.843 68.3092 293.728 71.9515 296.327 71.7684C298.926 71.5854 303.79 59.6435 302.817 55.9486C301.845 52.2536 297.953 48.3573 294.27 47.82C290.587 47.2828 285.473 48.8195 284.292 48.8195C283.111 48.8195 278.593 49.1631 278.256 50.3061Z" fill="#2B478B"/>
<path d="M312.056 93.1401C309.952 84.9523 304.136 76.3616 300.204 76.3682C293.503 76.38 283.871 78.0905 279.982 87.366C277.118 94.1975 273.297 133.494 277.615 136.289C287.486 142.678 310.366 155.719 314.43 142.42C318.156 130.233 315.708 107.351 312.056 93.1401Z" fill="#F99746"/>
<path d="M295.783 84.9919C293.872 80.1843 287.706 78.5225 283.502 81.6854C281.227 83.3959 278.443 85.832 275.079 89.2951C262.574 102.169 260.033 102.089 257.684 101.823C255.336 101.557 235.494 97.4856 235.494 97.4856C235.494 97.4856 234.478 98.2098 233.88 99.3817C233.082 100.946 233.484 102.013 233.484 102.013C232.706 101.527 240.517 106.732 244.405 108.807C249.539 111.548 257.276 114.118 260.357 115.094C261.23 115.37 262.172 115.357 263.037 115.055C267.611 113.462 282.969 107.654 295.472 97.5777C298.766 94.9218 297.555 89.4492 295.783 84.9919Z" fill="#F99746"/>
<path d="M300.879 76.4474L299.362 73.1436C299.362 73.1436 285.783 74.2141 283.5 81.6856C283.501 81.6856 294.027 76.608 300.879 76.4474Z" fill="white"/>
<path d="M333.846 211.542L333.94 211.541C334.707 211.527 335.3 210.92 335.228 210.224L330.112 160.835L325.648 161.219L332.994 210.874C333.05 211.261 333.417 211.548 333.846 211.542Z" fill="#8CB4F4"/>
<path d="M307.517 211.542L307.611 211.541C308.378 211.527 308.97 210.92 308.898 210.224L303.784 160.835L299.32 161.219L306.666 210.874C306.722 211.261 307.088 211.548 307.517 211.542Z" fill="#8CB4F4"/>
<path d="M258.09 211.542L257.996 211.541C257.229 211.527 256.637 210.92 256.709 210.224L261.825 160.835L266.288 161.219L258.943 210.874C258.886 211.261 258.519 211.548 258.09 211.542Z" fill="#73A2E5"/>
<path d="M332.401 153.837L337.255 112.588C337.891 106.644 335.835 100.822 326.961 100.372L311.351 99.4526C302.099 99.0839 297.923 106.528 296.752 112.258L287.484 157.602L332.401 153.837Z" fill="#8CB4F4"/>
<path d="M329.796 161.556H260.515C259.123 161.556 257.984 160.456 257.984 159.11V156.097C257.984 154.751 259.123 153.65 260.515 153.65H332.326V159.11C332.326 160.456 331.188 161.556 329.796 161.556Z" fill="#73A2E5"/>
<path d="M330.357 161.556H289.45C288.368 161.556 287.484 160.702 287.484 159.656V155.551C287.484 154.505 288.368 153.65 289.45 153.65H332.322V159.656C332.322 160.702 331.438 161.556 330.357 161.556Z" fill="#8CB4F4"/>
</svg>
