<svg width="75" height="75" viewBox="0 0 75 75" fill="none" xmlns="http://www.w3.org/2000/svg">
<path d="M29.1832 24.8535C29.6153 24.7037 30.037 24.4771 30.4796 24.4109C36.9061 23.4316 43.0955 24.0485 48.818 27.3697C55.6487 31.3357 58.827 38.8355 56.9869 46.4887C55.2061 53.9049 48.4137 59.5925 40.8267 60.0072C40.2343 60.0386 39.6348 60.0107 38.8437 59.7912C45.3643 54.222 47.3647 47.2938 45.204 39.3339C43.0153 31.2869 37.3521 26.8295 29.1797 24.8535H29.1832Z" fill="url(#paint0_linear_2306_54955)"/>
<path d="M22.5738 59.7702C22.8561 59.0732 23.114 58.3901 23.3998 57.721C27.3692 48.4298 27.3128 38.2565 23.3225 28.9549C22.974 27.9093 22.9746 27.9795 22.7724 27.0386C23.8452 27.0381 24.8495 27.0699 25.7522 27.4254C36.6464 31.7329 40.8215 45.3665 34.1755 54.7761C31.3492 58.7804 26.7489 60.8053 22.5703 59.7667L22.5738 59.7702Z" fill="url(#paint1_linear_2306_54955)"/>
<path d="M24.3438 23.1493C22.1098 23.09 20.3116 21.229 20.3603 19.023C20.4126 16.7542 22.3886 14.9176 24.6679 15.0186C26.7763 15.1127 28.491 16.9772 28.4422 19.131C28.3934 21.351 26.5045 23.205 24.3438 23.1493Z" fill="url(#paint2_radial_2306_54955)"/>
<rect x="0.9375" y="0.9375" width="73.125" height="73.125" rx="15.3125" stroke="url(#paint3_linear_2306_54955)" stroke-width="1.875"/>
<defs>
<linearGradient id="paint0_linear_2306_54955" x1="29.1506" y1="20.5079" x2="48.0471" y2="70.4957" gradientUnits="userSpaceOnUse">
<stop stop-color="#866EE1"/>
<stop offset="1" stop-color="#F3F1FC"/>
</linearGradient>
<linearGradient id="paint1_linear_2306_54955" x1="27.7576" y1="61.5602" x2="18.8587" y2="22.0826" gradientUnits="userSpaceOnUse">
<stop stop-color="#83DCDF"/>
<stop offset="1" stop-color="#EAF9FA"/>
</linearGradient>
<radialGradient id="paint2_radial_2306_54955" cx="0" cy="0" r="1" gradientUnits="userSpaceOnUse" gradientTransform="translate(25.999 17.981) rotate(127.194) scale(6.48204 6.4406)">
<stop stop-color="#EAF9FA"/>
<stop offset="1" stop-color="#59D1D4"/>
</radialGradient>
<linearGradient id="paint3_linear_2306_54955" x1="37.5" y1="0" x2="37.5" y2="75" gradientUnits="userSpaceOnUse">
<stop stop-color="#866EE1"/>
<stop offset="1" stop-color="#59D1D4"/>
</linearGradient>
</defs>
</svg>
