
<svg width="147" height="43" viewBox="0 0 147 43" fill="none" xmlns="http://www.w3.org/2000/svg">
<path d="M140.641 42.85H5.40926C2.43552 42.85 0 40.4721 0 37.5687V5.88098C0 2.97759 2.43552 0.599691 5.40926 0.599691H140.641C143.614 0.599691 146.05 2.97759 146.05 5.88098V37.5687C146.05 40.4721 143.614 42.85 140.641 42.85Z" fill="#212325"/>
<path d="M140.641 1.44602C143.145 1.44602 145.183 3.43574 145.183 5.88098V37.5687C145.183 40.0139 143.145 42.0036 140.641 42.0036H5.40926C2.90477 42.0036 0.866833 40.0139 0.866833 37.5687V5.88098C0.866833 3.43574 2.90477 1.44602 5.40926 1.44602H140.641ZM140.641 0.599691H5.40926C2.43552 0.599691 0 2.97759 0 5.88098V37.5687C0 40.4721 2.43552 42.85 5.40926 42.85H140.641C143.614 42.85 146.05 40.4721 146.05 37.5687V5.88098C146.05 2.97759 143.614 0.599691 140.641 0.599691Z" fill="#A6A6A6"/>
<path d="M51.3036 11.4198C51.3036 12.3018 51.0332 13.0081 50.5003 13.5349C49.8877 14.1594 49.0899 14.4737 48.1122 14.4737C47.1777 14.4737 46.3798 14.1542 45.7253 13.5244C45.0694 12.8853 44.7422 12.1011 44.7422 11.1623C44.7422 10.2236 45.0694 9.4393 45.7253 8.80555C46.3798 8.17047 47.1777 7.85095 48.1122 7.85095C48.5774 7.85095 49.0209 7.9447 49.4442 8.11898C49.8661 8.29458 50.2096 8.53224 50.4584 8.82535L49.8932 9.38253C49.4591 8.88212 48.8681 8.63522 48.1122 8.63522C47.4306 8.63522 46.8396 8.8676 46.3379 9.33631C45.8416 9.80635 45.5928 10.415 45.5928 11.1623C45.5928 11.9096 45.8416 12.5236 46.3379 12.9936C46.8396 13.457 47.4306 13.6947 48.1122 13.6947C48.8356 13.6947 49.4442 13.457 49.9243 12.9883C50.2407 12.678 50.4206 12.2503 50.4679 11.7036H48.1122V10.9405H51.2549C51.2928 11.1055 51.3036 11.2653 51.3036 11.4198Z" fill="white" stroke="white" stroke-width="0.16" stroke-miterlimit="10"/>
<path d="M56.2878 8.77413H53.3357V10.781H55.9971V11.5442H53.3357V13.551H56.2878V14.3287H52.5V7.99646H56.2878V8.77413Z" fill="white" stroke="white" stroke-width="0.16" stroke-miterlimit="10"/>
<path d="M59.8105 14.3287H58.9748V8.77413H57.1641V7.99646H61.6226V8.77413H59.8105V14.3287Z" fill="white" stroke="white" stroke-width="0.16" stroke-miterlimit="10"/>
<path d="M64.8438 14.3287V7.99646H65.6781V14.3287H64.8438Z" fill="white" stroke="white" stroke-width="0.16" stroke-miterlimit="10"/>
<path d="M69.3808 14.3287H68.5519V8.77413H66.7344V7.99646H71.1984V8.77413H69.3808V14.3287Z" fill="white" stroke="white" stroke-width="0.16" stroke-miterlimit="10"/>
<path d="M79.6381 13.5138C78.9985 14.1542 78.206 14.4737 77.2607 14.4737C76.3101 14.4737 75.5176 14.1542 74.878 13.5138C74.2397 12.8748 73.9219 12.0905 73.9219 11.1623C73.9219 10.2341 74.2397 9.44986 74.878 8.81083C75.5176 8.17047 76.3101 7.85095 77.2607 7.85095C78.2006 7.85095 78.9931 8.17047 79.6327 8.81611C80.2764 9.46042 80.5942 10.2394 80.5942 11.1623C80.5942 12.0905 80.2764 12.8748 79.6381 13.5138ZM75.496 12.983C75.9774 13.457 76.5629 13.6947 77.2607 13.6947C77.9531 13.6947 78.5441 13.457 79.0201 12.983C79.5002 12.509 79.7436 11.9004 79.7436 11.1623C79.7436 10.4243 79.5002 9.81559 79.0201 9.3416C78.5441 8.8676 77.9531 8.62994 77.2607 8.62994C76.5629 8.62994 75.9774 8.8676 75.496 9.3416C75.0159 9.81559 74.7725 10.4243 74.7725 11.1623C74.7725 11.9004 75.0159 12.509 75.496 12.983Z" fill="white" stroke="white" stroke-width="0.16" stroke-miterlimit="10"/>
<path d="M81.7656 14.3287V7.99646H82.7799L85.9335 12.9213H85.97L85.9335 11.7039V7.99646H86.7678V14.3287H85.8969L82.5946 9.16098H82.5581L82.5946 10.3836V14.3287H81.7656Z" fill="white" stroke="white" stroke-width="0.16" stroke-miterlimit="10"/>
<path d="M73.7112 23.5758C71.1702 23.5758 69.0944 25.4638 69.0944 28.0688C69.0944 30.6527 71.1702 32.5605 73.7112 32.5605C76.2576 32.5605 78.3334 30.6527 78.3334 28.0688C78.3334 25.4638 76.2576 23.5758 73.7112 23.5758ZM73.7112 30.7913C72.317 30.7913 71.1175 29.6677 71.1175 28.0688C71.1175 26.4488 72.317 25.345 73.7112 25.345C75.1054 25.345 76.3103 26.4488 76.3103 28.0688C76.3103 29.6677 75.1054 30.7913 73.7112 30.7913ZM63.6378 23.5758C61.0914 23.5758 59.021 25.4638 59.021 28.0688C59.021 30.6527 61.0914 32.5605 63.6378 32.5605C66.1829 32.5605 68.2546 30.6527 68.2546 28.0688C68.2546 25.4638 66.1829 23.5758 63.6378 23.5758ZM63.6378 30.7913C62.2422 30.7913 61.0387 29.6677 61.0387 28.0688C61.0387 26.4488 62.2422 25.345 63.6378 25.345C65.032 25.345 66.2315 26.4488 66.2315 28.0688C66.2315 29.6677 65.032 30.7913 63.6378 30.7913ZM51.6509 24.9528V26.862H56.3204C56.1839 27.9289 55.8187 28.7131 55.2589 29.2597C54.5773 29.9199 53.5157 30.6527 51.6509 30.6527C48.7772 30.6527 46.527 28.3883 46.527 25.5826C46.527 22.777 48.7772 20.5126 51.6509 20.5126C53.2047 20.5126 54.3352 21.1054 55.1696 21.8739L56.5476 20.5285C55.3806 19.4405 53.8281 18.6047 51.6509 18.6047C47.7103 18.6047 44.3984 21.7352 44.3984 25.5826C44.3984 29.4301 47.7103 32.5605 51.6509 32.5605C53.7808 32.5605 55.3806 31.8792 56.6382 30.6012C57.927 29.3429 58.3286 27.5737 58.3286 26.1451C58.3286 25.7015 58.2908 25.2935 58.2231 24.9528H51.6509ZM100.667 26.4329C100.287 25.4282 99.1144 23.5758 96.7262 23.5758C94.3597 23.5758 92.3894 25.3965 92.3894 28.0688C92.3894 30.5853 94.3394 32.5605 96.9534 32.5605C99.0671 32.5605 100.287 31.3023 100.789 30.5695L99.2199 29.5489C98.6966 30.2962 97.9839 30.7913 96.9534 30.7913C95.9297 30.7913 95.1954 30.3332 94.7248 29.4301L100.879 26.9439L100.667 26.4329ZM94.3921 27.9288C94.3394 26.1966 95.7701 25.3093 96.7952 25.3093C97.5985 25.3093 98.28 25.7015 98.5072 26.2626L94.3921 27.9288ZM89.3899 32.2872H91.413V19.084H89.3899V32.2872ZM86.0768 24.5766H86.0091C85.5548 24.0511 84.6879 23.5758 83.5899 23.5758C81.2855 23.5758 79.1786 25.551 79.1786 28.0833C79.1786 30.6012 81.2855 32.5605 83.5899 32.5605C84.6879 32.5605 85.5548 32.0813 86.0091 31.5399H86.0768V32.1842C86.0768 33.902 85.1369 34.8249 83.6209 34.8249C82.3849 34.8249 81.6182 33.9535 81.3017 33.2207L79.5424 33.9376C80.0495 35.1286 81.3923 36.5941 83.6209 36.5941C85.9929 36.5941 87.9943 35.2315 87.9943 31.9162V23.8491H86.0768V24.5766ZM83.7629 30.7913C82.3687 30.7913 81.2017 29.6519 81.2017 28.0833C81.2017 26.5003 82.3687 25.345 83.7629 25.345C85.1369 25.345 86.2201 26.5003 86.2201 28.0833C86.2201 29.6519 85.1369 30.7913 83.7629 30.7913ZM110.138 19.084H105.3V32.2872H107.318V27.2845H110.138C112.379 27.2845 114.577 25.7015 114.577 23.1836C114.577 20.6671 112.374 19.084 110.138 19.084ZM110.191 25.448H107.318V20.9206H110.191C111.698 20.9206 112.558 22.1419 112.558 23.1836C112.558 24.2055 111.698 25.448 110.191 25.448ZM122.664 23.5507C121.206 23.5507 119.69 24.1791 119.066 25.5721L120.857 26.3049C121.242 25.5721 121.951 25.3344 122.7 25.3344C123.747 25.3344 124.808 25.9484 124.825 27.0324V27.171C124.459 26.965 123.678 26.66 122.716 26.66C120.788 26.66 118.823 27.6965 118.823 29.6307C118.823 31.4 120.403 32.5394 122.178 32.5394C123.536 32.5394 124.285 31.9413 124.756 31.2455H124.825V32.2661H126.773V27.2014C126.773 24.8604 124.983 23.5507 122.664 23.5507ZM122.42 30.786C121.76 30.786 120.841 30.4665 120.841 29.6677C120.841 28.6458 121.987 28.2536 122.98 28.2536C123.869 28.2536 124.285 28.4451 124.825 28.6973C124.666 29.9199 123.589 30.786 122.42 30.786ZM133.873 23.8398L131.554 29.5634H131.485L129.087 23.8398H126.911L130.514 31.8383L128.458 36.2891H130.567L136.118 23.8398H133.873ZM115.686 32.2872H117.709V19.084H115.686V32.2872Z" fill="white"/>
<path d="M11.2908 8.56211C10.973 8.8869 10.7891 9.39259 10.7891 10.0475V33.4066C10.7891 34.0615 10.973 34.5672 11.2908 34.892L11.3692 34.9633L24.776 21.8789V21.5699L11.3692 8.48553L11.2908 8.56211Z" fill="url(#paint0_linear_2306_55023)"/>
<path d="M29.2374 26.2426L24.7734 21.8789V21.5699L29.2428 17.2063L29.3429 17.263L34.6359 20.2034C36.1464 21.0378 36.1464 22.411 34.6359 23.2507L29.3429 26.1858L29.2374 26.2426Z" fill="url(#paint1_linear_2306_55023)"/>
<path d="M29.3516 26.1861L24.7822 21.7247L11.2969 34.8923C11.7986 35.4072 12.6167 35.4693 13.5471 34.9543L29.3516 26.1861Z" fill="url(#paint2_linear_2306_55023)"/>
<path d="M29.3516 17.2636L13.5471 8.49536C12.6167 7.98571 11.7986 8.04777 11.2969 8.56269L24.7822 21.725L29.3516 17.2636Z" fill="url(#paint3_linear_2306_55023)"/>
<defs>
<linearGradient id="paint0_linear_2306_55023" x1="23.5857" y1="33.6499" x2="5.86423" y2="15.499" gradientUnits="userSpaceOnUse">
<stop stop-color="#00A0FF"/>
<stop offset="0.0066" stop-color="#00A1FF"/>
<stop offset="0.2601" stop-color="#00BEFF"/>
<stop offset="0.5122" stop-color="#00D2FF"/>
<stop offset="0.7604" stop-color="#00DFFF"/>
<stop offset="1" stop-color="#00E3FF"/>
</linearGradient>
<linearGradient id="paint1_linear_2306_55023" x1="36.6028" y1="21.7229" x2="10.4254" y2="21.7229" gradientUnits="userSpaceOnUse">
<stop stop-color="#FFE000"/>
<stop offset="0.4087" stop-color="#FFBD00"/>
<stop offset="0.7754" stop-color="#FFA500"/>
<stop offset="1" stop-color="#FF9C00"/>
</linearGradient>
<linearGradient id="paint2_linear_2306_55023" x1="26.8669" y1="19.2995" x2="2.83515" y2="-5.31459" gradientUnits="userSpaceOnUse">
<stop stop-color="#FF3A44"/>
<stop offset="1" stop-color="#C31162"/>
</linearGradient>
<linearGradient id="paint3_linear_2306_55023" x1="7.90235" y1="42.664" x2="18.6336" y2="31.6728" gradientUnits="userSpaceOnUse">
<stop stop-color="#32A071"/>
<stop offset="0.0685" stop-color="#2DA771"/>
<stop offset="0.4762" stop-color="#15CF74"/>
<stop offset="0.8009" stop-color="#06E775"/>
<stop offset="1" stop-color="#00F076"/>
</linearGradient>
</defs>
</svg>
