<svg width="27" height="25" viewBox="0 0 27 25" fill="none" xmlns="http://www.w3.org/2000/svg">
<path d="M13.4901 2.25312C16.898 2.25312 17.3022 2.26562 18.6488 2.32604C22.1077 2.48021 23.7233 4.0875 23.8808 7.45C23.9425 8.76771 23.9542 9.16354 23.9542 12.501C23.9542 15.8396 23.9414 16.2344 23.8808 17.5521C23.7223 20.9115 22.1109 22.5219 18.6488 22.676C17.3022 22.7365 16.9001 22.749 13.4901 22.749C10.0823 22.749 9.67809 22.7365 8.33259 22.676C4.86515 22.5208 3.25801 20.9062 3.10059 17.551C3.0389 16.2333 3.02613 15.8385 3.02613 12.5C3.02613 9.1625 3.03996 8.76771 3.10059 7.44896C3.25907 4.0875 4.87047 2.47917 8.33259 2.325C9.67915 2.26562 10.0823 2.25312 13.4901 2.25312ZM13.4901 0C10.0238 0 9.58981 0.0145833 8.22836 0.075C3.59305 0.283333 1.01693 2.80208 0.804208 7.34583C0.741453 8.68021 0.726562 9.10521 0.726562 12.5C0.726562 15.8948 0.741453 16.3208 0.803144 17.6542C1.01587 22.1937 3.58773 24.7167 8.22729 24.925C9.58981 24.9854 10.0238 25 13.4901 25C16.9565 25 17.3915 24.9854 18.753 24.925C23.384 24.7167 25.9665 22.1979 26.1761 17.6542C26.2388 16.3208 26.2537 15.8948 26.2537 12.5C26.2537 9.10521 26.2388 8.68021 26.1771 7.34687C25.9687 2.81146 23.3936 0.284375 18.7541 0.0760417C17.3915 0.0145833 16.9565 0 13.4901 0V0ZM13.4901 6.08125C9.8706 6.08125 6.93604 8.95521 6.93604 12.5C6.93604 16.0448 9.8706 18.9198 13.4901 18.9198C17.1097 18.9198 20.0442 16.0458 20.0442 12.5C20.0442 8.95521 17.1097 6.08125 13.4901 6.08125ZM13.4901 16.6667C11.1406 16.6667 9.23562 14.8021 9.23562 12.5C9.23562 10.199 11.1406 8.33333 13.4901 8.33333C15.8397 8.33333 17.7447 10.199 17.7447 12.5C17.7447 14.8021 15.8397 16.6667 13.4901 16.6667ZM20.3038 4.32812C19.4571 4.32812 18.7711 5 18.7711 5.82812C18.7711 6.65625 19.4571 7.32812 20.3038 7.32812C21.1494 7.32812 21.8343 6.65625 21.8343 5.82812C21.8343 5 21.1494 4.32812 20.3038 4.32812Z" fill="white"/>
</svg>
