<svg width="37" height="36" viewBox="0 0 37 36" fill="none" xmlns="http://www.w3.org/2000/svg">
<path d="M18.5 35.5781C28.2081 35.5781 36.0781 27.7081 36.0781 18C36.0781 8.29187 28.2081 0.421875 18.5 0.421875C8.79187 0.421875 0.921875 8.29187 0.921875 18C0.921875 27.7081 8.79187 35.5781 18.5 35.5781Z" fill="url(#paint0_linear_7740_217091)"/>
<path d="M22.2344 8.23438H14.7734C11.4453 8.23438 8.74219 10.9375 8.74219 14.2656V21.7266C8.74219 25.0547 11.4453 27.7578 14.7734 27.7578H22.2344C25.5625 27.7578 28.2656 25.0547 28.2656 21.7266V14.2656C28.2656 10.9375 25.5625 8.23438 22.2344 8.23438ZM26.0859 21.7344C26.0859 23.8594 24.3594 25.5938 22.2266 25.5938H14.7656C12.6406 25.5938 10.9062 23.8672 10.9062 21.7344V14.2734C10.9062 12.1484 12.6328 10.4141 14.7656 10.4141H22.2266C24.3516 10.4141 26.0859 12.1406 26.0859 14.2734V21.7344Z" fill="white"/>
<path d="M18.5 13.0078C15.75 13.0078 13.5078 15.25 13.5078 18C13.5078 20.75 15.75 22.9922 18.5 22.9922C21.25 22.9922 23.4922 20.75 23.4922 18C23.4922 15.25 21.25 13.0078 18.5 13.0078ZM18.5 21.0312C16.8281 21.0312 15.4687 19.6719 15.4687 18C15.4687 16.3281 16.8281 14.9687 18.5 14.9687C20.1719 14.9687 21.5312 16.3281 21.5312 18C21.5312 19.6719 20.1719 21.0312 18.5 21.0312Z" fill="white"/>
<path d="M23.8762 13.555C24.3362 13.4804 24.6486 13.0471 24.574 12.5872C24.4994 12.1273 24.0662 11.8149 23.6062 11.8894C23.1463 11.964 22.8339 12.3973 22.9084 12.8572C22.983 13.3171 23.4163 13.6295 23.8762 13.555Z" fill="white"/>
<defs>
<linearGradient id="paint0_linear_7740_217091" x1="5.11555" y1="31.3845" x2="30.096" y2="6.40398" gradientUnits="userSpaceOnUse">
<stop stop-color="#FEE411"/>
<stop offset="0.0518459" stop-color="#FEDB16"/>
<stop offset="0.1381" stop-color="#FEC125"/>
<stop offset="0.2481" stop-color="#FE983D"/>
<stop offset="0.3762" stop-color="#FE5F5E"/>
<stop offset="0.5" stop-color="#FE2181"/>
<stop offset="1" stop-color="#9000DC"/>
</linearGradient>
</defs>
</svg>
