<svg width="17" height="14" viewBox="0 0 17 14" fill="none" xmlns="http://www.w3.org/2000/svg">
<path d="M17 6.77344C17 7.15313 16.7178 7.46693 16.3518 7.51659L16.25 7.52344L1.25 7.52344C0.835787 7.52344 0.5 7.18765 0.5 6.77344C0.5 6.39374 0.782154 6.07995 1.14823 6.03028L1.25 6.02344L16.25 6.02344C16.6642 6.02344 17 6.35922 17 6.77344Z" fill="#866EE1"/>
<path d="M7.82606 12.2675C8.11959 12.5598 8.12061 13.0347 7.82835 13.3282C7.56265 13.595 7.14604 13.6201 6.85196 13.4029L6.76769 13.3305L0.717688 7.30647C0.450051 7.03998 0.425704 6.62187 0.644659 6.3278L0.717644 6.24357L6.76764 0.218573C7.06114 -0.0737131 7.53602 -0.0727299 7.8283 0.220769C8.09402 0.487586 8.11736 0.904299 7.8989 1.19746L7.82611 1.28143L2.31007 6.7753L7.82606 12.2675Z" fill="#866EE1"/>
</svg>
