<svg width="26" height="26" viewBox="0 0 26 26" fill="none" xmlns="http://www.w3.org/2000/svg">
<g clip-path="url(#clip0_7821_238286)">
<path d="M13.1094 25.7996C20.0129 25.7996 25.6094 20.2031 25.6094 13.2996C25.6094 6.396 20.0129 0.799561 13.1094 0.799561C6.20582 0.799561 0.609375 6.396 0.609375 13.2996C0.609375 20.2031 6.20582 25.7996 13.1094 25.7996Z" fill="white"/>
<path d="M20.5778 14.3054V19.4588H17.59V14.6507C17.59 13.4435 17.1586 12.619 16.0768 12.619C15.2512 12.619 14.7608 13.1741 14.5442 13.7115C14.4655 13.9036 14.4453 14.1703 14.4453 14.4397V19.4586H11.4572C11.4572 19.4586 11.4973 11.3153 11.4572 10.4723H14.4455V11.7458C14.4395 11.7558 14.431 11.7656 14.4257 11.7752H14.4455V11.7458C14.8426 11.1348 15.5507 10.2613 17.1383 10.2613C19.1041 10.2613 20.5778 11.5457 20.5778 14.3054ZM8.33142 6.14062C7.30932 6.14062 6.64062 6.81155 6.64062 7.69304C6.64062 8.55582 7.28993 9.24613 8.2922 9.24613H8.31158C9.35373 9.24613 10.0017 8.55582 10.0017 7.69304C9.98188 6.81155 9.35373 6.14062 8.33142 6.14062ZM6.81822 19.4588H9.80518V10.4723H6.81822V19.4588Z" fill="#31265A"/>
</g>
<defs>
<clipPath id="clip0_7821_238286">
<rect width="25" height="25" fill="white" transform="translate(0.609375 0.799805)"/>
</clipPath>
</defs>
</svg>
