<svg width="41" height="40" viewBox="0 0 41 40" fill="none" xmlns="http://www.w3.org/2000/svg">
<circle cx="20.5" cy="20" r="20" fill="#0A7BBA"/>
<path d="M21.7249 18.3402C22.2166 17.813 22.6709 17.314 23.2793 16.9679C26.0382 15.3823 29.6389 16.7506 30.5391 19.7246C30.7808 20.5294 30.885 21.3544 30.8892 22.1875C30.8934 24.5457 30.8892 26.9039 30.8975 29.2582C30.8975 29.5077 30.8517 29.6043 30.5641 29.6002C29.3014 29.5841 28.0386 29.5841 26.7759 29.6002C26.5008 29.6043 26.4341 29.5278 26.4341 29.2662C26.4466 27.1333 26.4425 24.9964 26.4383 22.8635C26.4383 22.3243 26.3841 21.789 26.2383 21.2619C25.7423 19.4549 23.5794 19.4228 22.5834 20.3242C21.9041 20.9399 21.7249 21.7045 21.729 22.5537C21.7374 24.7711 21.7249 26.9885 21.7374 29.2018C21.7374 29.4956 21.6832 29.6043 21.3456 29.6002C20.0954 29.5801 18.8451 29.5841 17.5907 29.5962C17.3365 29.6002 17.2656 29.5278 17.2656 29.2823C17.2781 25.1654 17.3365 21.0486 17.2698 16.9317C17.2656 16.6983 17.3406 16.6339 17.5782 16.6339C18.8534 16.642 20.1287 16.646 21.404 16.6339C21.6498 16.6299 21.7499 16.6902 21.7374 16.9438C21.7123 17.4146 21.7249 17.8774 21.7249 18.3402Z" fill="white"/>
<path d="M10.3365 23.1081C10.3365 21.0677 10.3406 19.0314 10.3323 16.9911C10.3323 16.7215 10.3906 16.6289 10.6907 16.6329C11.9409 16.649 13.1912 16.649 14.4414 16.6329C14.7373 16.6289 14.7999 16.7215 14.7999 16.9871C14.7915 21.0758 14.7915 25.1685 14.7999 29.2572C14.7999 29.5148 14.7373 29.5993 14.4581 29.5953C13.1954 29.5792 11.9326 29.5792 10.6699 29.5953C10.3906 29.5993 10.3281 29.5188 10.3281 29.2572C10.3406 27.2088 10.3365 25.1564 10.3365 23.1081Z" fill="white"/>
<path d="M10.0939 12.66C10.0814 11.344 11.1357 10.4023 12.6069 10.4023C14.0405 10.4023 15.0657 11.3239 15.0824 12.6197C15.099 13.9317 14.0488 14.8693 12.5694 14.8734C11.1399 14.8774 10.1064 13.9518 10.0939 12.66Z" fill="white"/>
</svg>
