<svg width="60" height="60" viewBox="0 0 60 60" fill="none" xmlns="http://www.w3.org/2000/svg">
<rect width="60" height="60" rx="8" fill="#F3F1FC"/>
<path d="M47.0761 38.5288V43.6902C47.078 44.1694 46.9799 44.6436 46.7879 45.0827C46.596 45.5217 46.3145 45.9158 45.9614 46.2397C45.6083 46.5636 45.1915 46.8102 44.7376 46.9637C44.2837 47.1172 43.8027 47.1743 43.3255 47.1311C38.0314 46.5559 32.946 44.7468 28.4779 41.8493C24.321 39.2078 20.7966 35.6835 18.1552 31.5265C15.2475 27.0382 13.4381 21.9281 12.8733 16.6101C12.8303 16.1344 12.8869 15.6549 13.0394 15.2022C13.1918 14.7494 13.4369 14.3334 13.759 13.9806C14.081 13.6278 14.473 13.3459 14.91 13.1529C15.347 12.9599 15.8194 12.86 16.2971 12.8595H21.4584C22.2934 12.8513 23.1028 13.147 23.7359 13.6914C24.369 14.2359 24.7825 14.992 24.8994 15.8187C25.1172 17.4705 25.5212 19.0923 26.1037 20.6532C26.3352 21.269 26.3853 21.9383 26.248 22.5817C26.1108 23.2251 25.792 23.8156 25.3295 24.2834L23.1445 26.4684C25.5937 30.7756 29.16 34.342 33.4673 36.7912L35.6522 34.6062C36.12 34.1436 36.7106 33.8248 37.354 33.6876C37.9974 33.5504 38.6666 33.6005 39.2824 33.832C40.8433 34.4144 42.4652 34.8184 44.1169 35.0363C44.9527 35.1542 45.7159 35.5751 46.2615 36.2191C46.8071 36.863 47.097 37.6851 47.0761 38.5288Z" stroke="#866EE1" stroke-width="2" stroke-linecap="round" stroke-linejoin="round"/>
</svg>
