<svg width="25" height="24" viewBox="0 0 25 24" fill="none" xmlns="http://www.w3.org/2000/svg">
<path d="M12.5028 0C5.8935 0 0.523438 5.37007 0.523438 11.9793C0.523438 16.895 3.45632 21.1084 7.71104 22.9673C7.66972 22.1411 7.71104 21.1084 7.91759 20.1996C8.16546 19.2083 9.44599 13.673 9.44599 13.673C9.44599 13.673 9.07421 12.8881 9.07421 11.7728C9.07421 9.99653 10.1069 8.67468 11.3874 8.67468C12.4615 8.67468 12.9985 9.50083 12.9985 10.4922C12.9985 11.5662 12.2962 13.2185 11.9244 14.7469C11.6353 16.0275 12.5441 17.0602 13.8246 17.0602C16.0966 17.0602 17.625 14.1273 17.625 10.6987C17.625 8.05498 15.8487 6.11353 12.6267 6.11353C8.99157 6.11353 6.71966 8.83986 6.71966 11.8553C6.71966 12.888 7.0088 13.6316 7.50449 14.2099C7.71104 14.4578 7.75236 14.5817 7.66972 14.8708C7.6284 15.0774 7.46317 15.6144 7.42185 15.8209C7.33921 16.11 7.09139 16.234 6.80225 16.11C5.10862 15.4078 4.36506 13.5902 4.36506 11.5248C4.36506 8.13758 7.2153 4.04808 12.9158 4.04808C17.501 4.04808 20.5165 7.35274 20.5165 10.9052C20.5165 15.6143 17.9141 19.1255 14.0725 19.1255C12.7919 19.1255 11.5527 18.4233 11.1396 17.6385C11.1396 17.6385 10.4374 20.4061 10.3135 20.9431C10.0656 21.8519 9.5699 22.802 9.11553 23.5042C10.1895 23.8347 11.3462 23.9999 12.5028 23.9999C19.1121 23.9999 24.4821 18.6298 24.4821 12.0206C24.4821 5.41129 19.1121 0 12.5028 0Z" fill="#CB1F24"/>
</svg>
