<svg width="25" height="26" viewBox="0 0 25 26" fill="none" xmlns="http://www.w3.org/2000/svg">
<g clip-path="url(#clip0_7823_238333)">
<path d="M12.5019 0.599731C5.61726 0.599731 0.0234375 6.19355 0.0234375 13.0782C0.0234375 18.1987 3.07852 22.5877 7.51053 24.524C7.46748 23.6634 7.51053 22.5877 7.72568 21.641C7.98388 20.6083 9.31776 14.8424 9.31776 14.8424C9.31776 14.8424 8.93049 14.0249 8.93049 12.8631C8.93049 11.0128 10.0062 9.63586 11.3401 9.63586C12.4589 9.63586 13.0183 10.4964 13.0183 11.5291C13.0183 12.6479 12.2868 14.3691 11.8995 15.9611C11.5983 17.2951 12.5449 18.3707 13.8788 18.3707C16.2455 18.3707 17.8375 15.3157 17.8375 11.7442C17.8375 8.99034 15.9873 6.968 12.631 6.968C8.84441 6.968 6.47783 9.80792 6.47783 12.949C6.47783 14.0248 6.77902 14.7993 7.29537 15.4017C7.51053 15.6599 7.55357 15.789 7.46748 16.0902C7.42444 16.3053 7.25233 16.8647 7.20929 17.0798C7.1232 17.381 6.86506 17.5101 6.56387 17.381C4.79967 16.6495 4.02513 14.7562 4.02513 12.6048C4.02513 9.07637 6.99413 4.81648 12.9322 4.81648C17.7084 4.81648 20.8496 8.25884 20.8496 11.9593C20.8496 16.8647 18.1387 20.5222 14.137 20.5222C12.8031 20.5222 11.5123 19.7907 11.082 18.9731C11.082 18.9731 10.3505 21.8561 10.2214 22.4155C9.96318 23.3621 9.44683 24.3518 8.97353 25.0833C10.0923 25.4275 11.2971 25.5996 12.5019 25.5996C19.3866 25.5996 24.9804 20.0058 24.9804 13.1212C24.9804 6.2365 19.3866 0.599731 12.5019 0.599731Z" fill="white"/>
</g>
<defs>
<clipPath id="clip0_7823_238333">
<rect width="25" height="25" fill="white" transform="translate(0 0.599731)"/>
</clipPath>
</defs>
</svg>
