<svg width="17" height="14" viewBox="0 0 17 14" fill="none" xmlns="http://www.w3.org/2000/svg">
<path d="M6.55671e-08 7.22656C9.87611e-08 6.84687 0.282154 6.53307 0.64823 6.48341L0.75 6.47656L15.75 6.47656C16.1642 6.47656 16.5 6.81235 16.5 7.22656C16.5 7.60626 16.2178 7.92005 15.8518 7.96972L15.75 7.97656L0.75 7.97656C0.335786 7.97656 2.93554e-08 7.64078 6.55671e-08 7.22656Z" fill="#866EE1"/>
<path d="M9.17394 1.73247C8.88042 1.44021 8.87939 0.965336 9.17166 0.671813C9.43735 0.404974 9.85396 0.379871 10.148 0.597093L10.2323 0.669529L16.2823 6.69353C16.5499 6.96002 16.5743 7.37813 16.3553 7.6722L16.2824 7.75643L10.2324 13.7814C9.93886 14.0737 9.46398 14.0727 9.1717 13.7792C8.90598 13.5124 8.88264 13.0957 9.1011 12.8025L9.17389 12.7186L14.6899 7.2247L9.17394 1.73247Z" fill="#866EE1"/>
</svg>
