<svg width="73" height="73" viewBox="0 0 73 73" fill="none" xmlns="http://www.w3.org/2000/svg">
<circle cx="36.5" cy="36.5" r="36.5" fill="#866EE1"/>
<g clip-path="url(#clip0_6460_87823)">
<path d="M36.5057 28.3453C39.4602 28.3453 41.8239 25.9817 41.8239 23.0272C41.8239 20.0726 39.4602 17.709 36.5057 17.709C33.5511 17.709 31.1875 20.0726 31.1875 23.0272C31.1875 25.9226 33.5511 28.3453 36.5057 28.3453Z" fill="white"/>
<path d="M47.1368 30.7682C49.1459 30.7682 50.8595 29.1137 50.8595 27.0455C50.8595 24.9773 49.205 23.3818 47.1368 23.3818C45.1277 23.3818 43.4141 25.0364 43.4141 27.0455C43.4141 29.0546 45.1277 30.7682 47.1368 30.7682Z" fill="white"/>
<path d="M25.8634 30.7682C27.9315 30.7682 29.5861 29.1137 29.5861 27.0455C29.5861 24.9773 27.9315 23.3818 25.8634 23.3818C23.8543 23.3818 22.1406 25.0364 22.1406 27.0455C22.1406 29.0546 23.8543 30.7682 25.8634 30.7682Z" fill="white"/>
<path d="M28.2301 32.304C26.9301 31.9495 25.9256 32.0086 25.6301 32.0086C21.1983 32.0086 17.5938 35.6131 17.5938 40.0449V42.5268C17.5938 42.8222 17.8301 43.1177 18.1847 43.1177H22.971V42.8222C22.971 38.5086 25.0392 34.7268 28.2301 32.304Z" fill="white"/>
<path d="M46.9007 32.0088C46.1916 32.0088 45.4825 32.127 44.7734 32.3042C47.9643 34.727 50.0325 38.5088 50.0325 42.8224V43.1179H54.8189C55.1734 43.1179 55.4098 42.8224 55.4098 42.527V40.0452C55.4098 32.0088 46.9598 32.0679 46.9007 32.0088Z" fill="white"/>
<path d="M28.4689 46.4272C25.3962 40.1635 30.1825 32.7772 37.1553 32.7772C42.0007 32.7772 45.7825 36.3226 46.6098 40.6362C47.0234 42.6453 46.6689 44.6544 46.3143 45.4817V45.5408C46.4325 45.5999 48.0871 47.0772 48.2053 47.1953H48.3825C48.678 47.1953 48.9734 46.8999 48.9734 46.6044V42.8226C48.9734 36.2044 43.5962 30.8272 36.978 30.8272C36.9189 30.8272 24.2734 30.7681 24.2734 42.8226V46.6044C24.2734 46.8999 24.5098 47.1953 24.8643 47.1953H29.0007C28.7643 46.8408 28.5871 46.4272 28.4098 46.0135C28.3507 46.1317 28.4098 46.309 28.4689 46.4272Z" fill="white"/>
<path d="M45.5466 42.527C45.7239 35.5543 37.6875 31.3588 32.0738 35.6134C28.5284 38.2725 27.7011 43.2361 30.0648 46.8406C34.4966 53.9315 45.4284 50.7997 45.5466 42.527ZM31.0693 46.2497C29.0602 43.1179 29.7693 38.8634 32.842 36.5588C37.6284 32.9543 44.542 36.4406 44.4239 42.4679C44.4239 43.5906 44.1284 44.6543 43.5966 45.6588C41.0557 50.6225 34.0238 50.977 31.0693 46.2497Z" fill="white"/>
<path d="M45.7822 46.6641C45.0141 48.2004 43.8322 49.5004 42.4141 50.3868L47.2595 54.7004C48.3232 55.5868 49.8595 55.5277 50.805 54.5232C51.7504 53.4595 51.5732 51.805 50.5686 50.9777C48.3822 48.9686 47.6141 48.3186 45.7822 46.6641Z" fill="white"/>
</g>
<defs>
<clipPath id="clip0_6460_87823">
<rect width="39" height="39" fill="white" transform="translate(17 17)"/>
</clipPath>
</defs>
</svg>
