<svg width="73" height="73" viewBox="0 0 73 73" fill="none" xmlns="http://www.w3.org/2000/svg">
<circle cx="36.5" cy="36.5" r="36.5" fill="#866EE1"/>
<path d="M36.5012 29.0698C32.4037 29.0698 29.0703 32.4032 29.0703 36.5005C29.0703 40.598 32.4037 43.9314 36.5012 43.9314C40.5984 43.9314 43.9319 40.598 43.9319 36.5005C43.9319 32.4032 40.5984 29.0698 36.5012 29.0698ZM40.913 35.1011L35.5896 40.4245C35.3661 40.6479 35.073 40.7598 34.7802 40.7598C34.4874 40.7598 34.1947 40.6482 33.9712 40.4245L31.9369 38.3902C31.49 37.9436 31.49 37.219 31.9369 36.7721C32.3835 36.3252 33.108 36.3252 33.5549 36.7721L34.7802 37.9974L39.2949 33.483C39.7415 33.0361 40.466 33.0361 40.913 33.483C41.3599 33.9296 41.3599 34.6542 40.913 35.1011Z" fill="white"/>
<path d="M53.0703 27.5817L53.0691 27.5513C53.0521 27.1767 53.0408 26.7804 53.034 26.3394C53.0022 24.1891 51.2928 22.4103 49.1421 22.2901C44.6581 22.0399 41.1893 20.5778 38.2254 17.6889L38.2002 17.6648C37.2334 16.7784 35.7752 16.7784 34.8081 17.6648L34.7828 17.6889C31.819 20.5778 28.3502 22.0399 23.8662 22.2904C21.7158 22.4103 20.0061 24.1891 19.9743 26.3397C19.9678 26.7777 19.9561 27.1741 19.9392 27.5513L19.9374 27.6219C19.8502 32.1942 19.7419 37.8848 21.6456 43.0499C22.6924 45.8903 24.2777 48.3593 26.3572 50.3889C28.7257 52.7002 31.8279 54.5352 35.5776 55.8426C35.6996 55.8851 35.8263 55.9196 35.9555 55.9455C36.1376 55.9818 36.3209 56 36.5041 56C36.6874 56 36.871 55.9818 37.0528 55.9455C37.182 55.9196 37.3096 55.8848 37.4322 55.842C41.1774 54.5322 44.2763 52.6963 46.6427 50.3853C48.7214 48.3551 50.3067 45.8855 51.3543 43.0445C53.2652 37.864 53.1572 32.1627 53.0703 27.5817ZM36.5035 46.2199C31.1442 46.2199 26.7842 41.86 26.7842 36.5006C26.7842 31.1412 31.1442 26.7813 36.5035 26.7813C41.8626 26.7813 46.2229 31.1412 46.2229 36.5006C46.2229 41.86 41.8626 46.2199 36.5035 46.2199Z" fill="white"/>
</svg>
