<svg width="60" height="60" viewBox="0 0 60 60" fill="none" xmlns="http://www.w3.org/2000/svg">
<rect width="60" height="60" rx="8" fill="#F3F1FC"/>
<path d="M42.6804 34.1017C43.109 32.779 43.3267 31.3995 43.3267 29.9938C43.3267 28.5933 43.1106 27.2187 42.6845 25.9002C43.6215 25.5485 44.4733 24.9853 45.1806 24.2364C46.403 22.9428 47.0481 21.2505 46.9972 19.4718C46.8919 15.7994 43.8181 12.8981 40.1443 13.0029C38.3648 13.0537 36.712 13.7943 35.4896 15.0882C34.8723 15.7416 34.4026 16.4967 34.0952 17.3133C32.776 16.8876 31.4011 16.6715 29.9996 16.6715C28.5974 16.6715 27.2215 16.8881 25.9015 17.3143C24.9495 14.7958 22.5131 13 19.6646 13C15.9896 13 13 15.9888 13 19.6624C13 22.5099 14.7966 24.9454 17.3158 25.8968C16.8892 27.2167 16.6728 28.5923 16.6728 29.9938C16.6728 31.3995 16.8905 32.779 17.3192 34.1017C14.7981 35.0524 13 37.4889 13 40.3376C13 41.3405 13.2174 42.3046 13.6463 43.2032C13.7649 43.4515 14.0623 43.5568 14.3106 43.4382C14.5587 43.3197 14.664 43.0224 14.5457 42.7742C14.1811 42.0105 13.9964 41.1908 13.9964 40.3376C13.9964 37.2134 16.5392 34.6716 19.6646 34.6716C22.7902 34.6716 25.333 37.2134 25.333 40.3376C25.333 43.4621 22.7902 46.004 19.6646 46.004C18.239 46.004 16.8765 45.473 15.8283 44.5088C15.6256 44.3225 15.3103 44.3358 15.1243 44.5381C14.938 44.7407 14.951 45.0556 15.1536 45.2418C16.3864 46.3757 17.9884 47 19.6646 47C22.5172 47 24.9568 45.1988 25.9057 42.6746C27.2241 43.1 28.5987 43.316 29.9996 43.316C31.4008 43.316 32.7757 43.1 34.0941 42.6748C35.043 45.199 37.4826 47 40.3352 47C44.0102 47 46.9998 44.0112 46.9998 40.3376C46.9998 37.4889 45.2017 35.0521 42.6804 34.1017ZM36.214 15.7719C37.2535 14.6716 38.6596 14.0417 40.1731 13.9984C40.2281 13.9969 40.2826 13.9961 40.3376 13.9961C43.3885 13.9961 45.9134 16.4321 46.0011 19.5C46.0444 21.0129 45.4959 22.452 44.4564 23.5526C43.417 24.653 42.0109 25.2828 40.4974 25.3262C40.4424 25.3277 40.3876 25.3285 40.3329 25.3285C37.282 25.3285 34.7571 22.8925 34.6694 19.8245C34.6258 18.3117 35.1746 16.8723 36.214 15.7719ZM33.8147 41.7181C32.5871 42.1171 31.3061 42.32 29.9996 42.32C28.6937 42.32 27.4127 42.1171 26.1851 41.7181C26.2793 41.2725 26.3294 40.8108 26.3294 40.3376C26.3294 36.664 23.3395 33.6755 19.6646 33.6755C19.1884 33.6755 18.724 33.726 18.2759 33.8212C17.8734 32.5896 17.6692 31.3043 17.6692 29.9938C17.6692 28.6875 17.8724 27.4063 18.2722 26.1778C18.7214 26.2737 19.1871 26.3246 19.6646 26.3246C20.8062 26.3246 21.9326 26.0309 22.9225 25.4756C23.1623 25.3409 23.2476 25.0374 23.113 24.7975C22.9783 24.5576 22.6747 24.4725 22.4347 24.6071C21.5935 25.0789 20.6355 25.3285 19.6646 25.3285C16.539 25.3285 13.9964 22.7866 13.9964 19.6622C13.9964 16.538 16.5392 13.9961 19.6646 13.9961C22.7902 13.9961 25.333 16.538 25.333 19.6624C25.333 20.9695 24.8771 22.2447 24.0494 23.2536C23.8748 23.466 23.9059 23.7799 24.1187 23.9545C24.3312 24.1288 24.6452 24.0979 24.8198 23.8852C25.7931 22.699 26.3294 21.1991 26.3294 19.6622C26.3294 19.1851 26.2783 18.7195 26.1825 18.2705C27.4111 17.8707 28.6929 17.6676 29.9996 17.6676C31.3061 17.6676 32.5874 17.8705 33.8155 18.2697C33.7067 18.7838 33.658 19.3143 33.6733 19.8531C33.7768 23.4606 36.7452 26.3248 40.3326 26.3246C40.3967 26.3246 40.4613 26.3238 40.5259 26.3217C40.9344 26.3101 41.336 26.2616 41.7276 26.1788C42.1272 27.4068 42.3303 28.688 42.3303 29.9938C42.3303 31.3043 42.1259 32.5896 41.7237 33.8212C41.2756 33.7258 40.8111 33.6755 40.3352 33.6755C36.6603 33.6755 33.6707 36.664 33.6707 40.3376C33.6707 40.811 33.7205 41.2728 33.8147 41.7181ZM40.3352 46.004C37.2096 46.004 34.667 43.4621 34.667 40.3379C34.667 37.2134 37.2096 34.6716 40.3352 34.6716C43.4608 34.6716 46.0034 37.2134 46.0034 40.3379C46.0034 43.4621 43.4608 46.004 40.3352 46.004Z" fill="#866EE1"/>
<path d="M23.0569 16.7224C22.8851 16.6057 22.6591 16.6075 22.4895 16.7273C22.3198 16.8469 22.1381 16.9468 21.9472 17.0259C21.2627 16.4905 20.2707 16.4967 19.5911 17.0874C19.238 17.3945 19.0172 17.8191 18.9658 18.2777C18.2349 18.1691 17.5743 17.7667 17.1409 17.1499C17.0377 17.0031 16.8633 16.9234 16.685 16.9405C16.5063 16.9579 16.3508 17.07 16.2779 17.2339C16.2637 17.2661 15.9284 18.0318 15.9712 18.969C16.0039 19.6863 16.2605 20.6108 17.1965 21.3247C16.8594 21.4333 16.5034 21.4837 16.1487 21.4694C15.9178 21.4603 15.7115 21.6105 15.6492 21.8326C15.5869 22.0546 15.6853 22.2904 15.8869 22.4025C16.6684 22.8364 17.5058 23.0538 18.3239 23.0538C19.1098 23.0538 19.8779 22.853 20.5613 22.4512C21.4183 21.9472 22.0411 21.1755 22.3792 20.2331C22.3898 20.2092 22.3986 20.1843 22.4056 20.1587C22.5795 19.6469 22.6706 19.0863 22.6706 18.4918C22.6706 18.4658 22.6698 18.4396 22.6687 18.4137C22.9531 18.0785 23.156 17.6814 23.2609 17.2521C23.3096 17.0503 23.2287 16.8391 23.0569 16.7224ZM21.6589 18.3364C21.6687 18.3883 21.6739 18.4419 21.6739 18.4933C21.6739 18.9815 21.6013 19.4336 21.463 19.8422C21.4554 19.8609 21.4492 19.8803 21.444 19.9003C21.1853 20.624 20.7144 21.2053 20.0561 21.5926C19.4536 21.9472 18.7621 22.0982 18.0574 22.0471C18.2188 21.9672 18.3747 21.8764 18.5239 21.7752C18.6734 21.6736 18.7564 21.499 18.7403 21.3187C18.7242 21.1384 18.6116 20.9812 18.4463 20.9078C17.5161 20.4946 17.0187 19.8373 16.9681 18.9545C16.9577 18.7737 16.9668 18.6002 16.9863 18.4412C17.6716 19.0137 18.5494 19.326 19.4656 19.3024C19.7357 19.2954 19.951 19.0746 19.951 18.8046V18.5024C19.951 18.5003 19.951 18.498 19.951 18.4956C19.9477 18.2438 20.0546 18.0043 20.245 17.8391C20.601 17.5296 21.1423 17.5673 21.4518 17.9231C21.5141 17.9945 21.5935 18.0451 21.6802 18.0718C21.6498 18.1553 21.6418 18.2464 21.6589 18.3364Z" fill="#866EE1"/>
<path d="M38.6959 20.0552H39.4022V23.025C39.4022 23.3 39.6253 23.5231 39.9004 23.5231C40.1757 23.5231 40.3985 23.3 40.3985 23.025V20.0552H41.1679C41.4429 20.0552 41.6661 19.8321 41.6661 19.5571C41.6661 19.2821 41.4429 19.0591 41.1679 19.0591H40.3985V17.6656C40.3985 17.1872 40.788 16.7979 41.2667 16.7979H41.9118C42.1868 16.7979 42.41 16.5748 42.41 16.2998C42.41 16.0246 42.1868 15.8018 41.9118 15.8018H41.2667C40.2387 15.8018 39.4022 16.6378 39.4022 17.6656V19.0591H38.6959C38.4208 19.0591 38.1977 19.2821 38.1977 19.5571C38.1977 19.8321 38.4208 20.0552 38.6959 20.0552Z" fill="#866EE1"/>
<path d="M18.5343 42.9135C18.6529 42.9135 18.7715 42.8829 18.8771 42.8219L22.2681 40.8637C22.4796 40.7418 22.6109 40.5143 22.6109 40.2702C22.6109 40.0263 22.4796 39.7988 22.2681 39.6769L18.8771 37.7187C18.6659 37.5965 18.4033 37.5965 18.1918 37.7187C17.9803 37.8406 17.8488 38.0681 17.8488 38.3122V42.2284C17.8488 42.4725 17.9803 42.7 18.1918 42.8219C18.2974 42.8831 18.4157 42.9135 18.5343 42.9135ZM18.8452 38.8507L21.3039 40.2704L18.8452 41.6901V38.8507Z" fill="#866EE1"/>
<path d="M42.5 36.8103H38.1704C37.4185 36.8103 36.8067 37.422 36.8067 38.174V42.5015C36.8067 43.2535 37.4185 43.8652 38.1704 43.8652H42.5C43.252 43.8652 43.8638 43.2535 43.8638 42.5015V38.174C43.8638 37.422 43.252 36.8103 42.5 36.8103ZM42.8674 42.5015C42.8674 42.7044 42.7027 42.8691 42.5 42.8691H38.1704C37.9678 42.8691 37.803 42.7044 37.803 42.5015V38.174C37.803 37.9714 37.9678 37.8064 38.1704 37.8064H42.5C42.7027 37.8064 42.8674 37.9714 42.8674 38.174V42.5015Z" fill="#866EE1"/>
<path d="M40.3352 38.8323C39.5049 38.8323 38.8293 39.5078 38.8293 40.3379C38.8293 41.168 39.5049 41.8432 40.3352 41.8432C41.1655 41.8432 41.8412 41.168 41.8412 40.3379C41.8412 39.5078 41.1655 38.8323 40.3352 38.8323ZM40.3352 40.8471C40.0542 40.8471 39.8256 40.6185 39.8256 40.3379C39.8256 40.0569 40.0542 39.8284 40.3352 39.8284C40.6162 39.8284 40.8448 40.0569 40.8448 40.3379C40.8448 40.6185 40.6162 40.8471 40.3352 40.8471Z" fill="#866EE1"/>
<path d="M33.6053 24.8266C33.33 24.8266 33.1071 25.0496 33.1071 25.3246V25.5479C32.405 25.9617 31.6668 26.3189 30.9078 26.6112C30.3001 26.8452 29.6724 27.0398 29.0375 27.192C28.94 27.1171 28.8185 27.0717 28.6862 27.0717H26.4052C25.854 27.0717 25.4059 27.5199 25.4059 28.0706V30.6861C25.4059 31.2371 25.854 31.6851 26.4052 31.6851H26.8611L27.0339 35.0059C27.0476 35.2718 27.2676 35.478 27.531 35.478C27.5396 35.478 27.5484 35.4778 27.5572 35.4772C27.832 35.463 28.0432 35.2287 28.0289 34.954L27.8587 31.6851H28.6862C28.8183 31.6851 28.94 31.6399 29.0373 31.565C29.4415 31.6625 29.8437 31.7772 30.2368 31.9076C30.4981 31.994 30.7799 31.8527 30.8665 31.5917C30.9532 31.3305 30.8115 31.0485 30.5505 30.9621C30.1283 30.8221 29.6966 30.6988 29.2622 30.5943V28.163C29.9426 28.0001 30.6149 27.7912 31.2659 27.5407C31.8954 27.2981 32.5119 27.0141 33.1068 26.6924V32.0656C32.8878 31.9473 32.6665 31.8345 32.4436 31.7274C32.1956 31.608 31.8979 31.7123 31.7788 31.9603C31.6595 32.2083 31.7638 32.5058 32.0119 32.6251C32.3829 32.8036 32.7498 33.0002 33.1068 33.2098V33.4321C33.1068 33.7074 33.33 33.9302 33.605 33.9302C33.8801 33.9302 34.1032 33.7074 34.1032 33.4321V25.3246C34.1035 25.0496 33.8803 24.8266 33.6053 24.8266ZM28.2661 30.6887L26.4023 30.6861L26.4052 28.0678H28.2661V30.6887Z" fill="#866EE1"/>
</svg>
