<svg width="149" height="149" viewBox="0 0 149 149" fill="none" xmlns="http://www.w3.org/2000/svg">
<path d="M74.5 0C33.4207 0 0 33.4207 0 74.5C0 115.579 33.4207 149 74.5 149C115.579 149 149 115.579 149 74.5C149 33.4207 115.579 0 74.5 0ZM74.5 135.455C40.8892 135.455 13.5455 108.11 13.5455 74.5C13.5455 40.8897 40.8892 13.5455 74.5 13.5455C108.111 13.5455 135.455 40.8897 135.455 74.5C135.455 108.11 108.11 135.455 74.5 135.455Z" fill="#0DAB30"/>
<path d="M102.434 48.1608L64.1211 86.4732L46.5617 68.9133C43.9172 66.2688 39.6287 66.2683 36.9837 68.9128C34.3388 71.5578 34.3388 75.8459 36.9837 78.4908L59.3319 100.84C60.602 102.11 62.3246 102.824 64.1207 102.824C64.1211 102.824 64.1207 102.824 64.1211 102.824C65.9173 102.824 67.6398 102.11 68.9099 100.84L112.012 57.7392C114.657 55.0942 114.657 50.8062 112.012 48.1612C109.367 45.5162 105.079 45.5158 102.434 48.1608Z" fill="#0DAB30"/>
</svg>
