<svg width="73" height="73" viewBox="0 0 73 73" fill="none" xmlns="http://www.w3.org/2000/svg">
<circle cx="36.5" cy="36.5" r="36.5" fill="#866EE1"/>
<path d="M50.9543 19.2939H47.5131V22.7351C47.5131 23.4234 46.9396 23.8822 46.3661 23.8822C45.7926 23.8822 45.219 23.4234 45.219 22.7351V19.2939H26.8661V22.7351C26.8661 23.4234 26.2926 23.8822 25.719 23.8822C25.1455 23.8822 24.572 23.4234 24.572 22.7351V19.2939H21.1308C19.4102 19.2939 18.1484 20.7851 18.1484 22.7351V26.8645H54.8543V22.7351C54.8543 20.7851 52.7896 19.2939 50.9543 19.2939ZM18.1484 29.2734V50.2645C18.1484 52.3292 19.4102 53.7057 21.2455 53.7057H51.069C52.9043 53.7057 54.969 52.2145 54.969 50.2645V29.2734H18.1484ZM28.3573 48.5439H25.6043C25.1455 48.5439 24.6867 48.1998 24.6867 47.6263V44.7587C24.6867 44.2998 25.0308 43.841 25.6043 43.841H28.472C28.9308 43.841 29.3896 44.1851 29.3896 44.7587V47.6263C29.2749 48.1998 28.9308 48.5439 28.3573 48.5439ZM28.3573 38.2204H25.6043C25.1455 38.2204 24.6867 37.8763 24.6867 37.3028V34.4351C24.6867 33.9763 25.0308 33.5175 25.6043 33.5175H28.472C28.9308 33.5175 29.3896 33.8616 29.3896 34.4351V37.3028C29.2749 37.8763 28.9308 38.2204 28.3573 38.2204ZM37.5337 48.5439H34.6661C34.2073 48.5439 33.7484 48.1998 33.7484 47.6263V44.7587C33.7484 44.2998 34.0926 43.841 34.6661 43.841H37.5337C37.9926 43.841 38.4514 44.1851 38.4514 44.7587V47.6263C38.4514 48.1998 38.1073 48.5439 37.5337 48.5439ZM37.5337 38.2204H34.6661C34.2073 38.2204 33.7484 37.8763 33.7484 37.3028V34.4351C33.7484 33.9763 34.0926 33.5175 34.6661 33.5175H37.5337C37.9926 33.5175 38.4514 33.8616 38.4514 34.4351V37.3028C38.4514 37.8763 38.1073 38.2204 37.5337 38.2204ZM46.7102 48.5439H43.8426C43.3837 48.5439 42.9249 48.1998 42.9249 47.6263V44.7587C42.9249 44.2998 43.269 43.841 43.8426 43.841H46.7102C47.169 43.841 47.6279 44.1851 47.6279 44.7587V47.6263C47.6279 48.1998 47.2837 48.5439 46.7102 48.5439ZM46.7102 38.2204H43.8426C43.3837 38.2204 42.9249 37.8763 42.9249 37.3028V34.4351C42.9249 33.9763 43.269 33.5175 43.8426 33.5175H46.7102C47.169 33.5175 47.6279 33.8616 47.6279 34.4351V37.3028C47.6279 37.8763 47.2837 38.2204 46.7102 38.2204Z" fill="white"/>
</svg>
