<svg width="41" height="40" viewBox="0 0 41 40" fill="none" xmlns="http://www.w3.org/2000/svg">
<circle cx="20.5" cy="20" r="20" fill="#1D9BF0"/>
<path d="M28.054 15.9832C28.0662 16.1567 28.0662 16.3303 28.0662 16.5055C28.0662 21.8436 23.9387 28 16.3912 28V27.9968C14.1617 28 11.9785 27.3712 10.1016 26.1857C10.4258 26.2241 10.7516 26.2433 11.0782 26.2441C12.9259 26.2457 14.7207 25.6353 16.1743 24.5114C14.4184 24.4786 12.8787 23.3515 12.3408 21.706C12.9559 21.8228 13.5897 21.7988 14.1934 21.6364C12.2791 21.2556 10.9019 19.5997 10.9019 17.6767C10.9019 17.6591 10.9019 17.6423 10.9019 17.6255C11.4723 17.9382 12.1109 18.1118 12.7642 18.131C10.9612 16.9447 10.4054 14.5832 11.4942 12.737C13.5775 15.2608 16.6512 16.7951 19.9508 16.9575C19.6201 15.5544 20.0719 14.0841 21.1379 13.0977C22.7906 11.5682 25.3898 11.6466 26.9433 13.2729C27.8623 13.0945 28.743 12.7626 29.5491 12.2922C29.2427 13.2273 28.6017 14.0217 27.7453 14.5265C28.5586 14.4321 29.3532 14.2177 30.1016 13.8905C29.5507 14.7032 28.8568 15.4112 28.054 15.9832Z" fill="white"/>
</svg>
