<svg width="29" height="23" viewBox="0 0 29 23" fill="none" xmlns="http://www.w3.org/2000/svg">
<path d="M27.9341 2.55386C27.4909 2.74219 27.0352 2.90114 26.5696 3.03018C27.1208 2.43293 27.5411 1.73019 27.7977 0.961176C27.8552 0.788802 27.7956 0.600124 27.6477 0.487389C27.5 0.374566 27.2948 0.361051 27.1321 0.453385C26.1433 1.01523 25.0764 1.41901 23.9578 1.65512C22.8309 0.600299 21.3004 0 19.7183 0C16.3785 0 13.6614 2.60286 13.6614 5.80219C13.6614 6.05417 13.6781 6.30475 13.711 6.55185C9.56675 6.20326 5.71388 4.25188 3.06813 1.14279C2.97384 1.03197 2.82858 0.972249 2.67987 0.983671C2.53106 0.994831 2.39736 1.07522 2.32219 1.19877C1.78557 2.08086 1.50188 3.08973 1.50188 4.11621C1.50188 5.51429 2.02293 6.84079 2.94335 7.8773C2.66348 7.78444 2.3919 7.66839 2.1327 7.53055C1.99354 7.45635 1.82371 7.45748 1.68546 7.53342C1.54712 7.60937 1.46038 7.74904 1.45674 7.90171C1.4561 7.92743 1.4561 7.95315 1.4561 7.97922C1.4561 10.0661 2.62854 11.9449 4.42104 12.969C4.26705 12.9542 4.11314 12.9329 3.96024 12.9049C3.80261 12.876 3.64051 12.929 3.53421 13.0441C3.42772 13.1592 3.3925 13.3197 3.44156 13.4661C4.10504 15.4506 5.81327 16.9102 7.87836 17.3552C6.16558 18.3829 4.20689 18.9212 2.15072 18.9212C1.72168 18.9212 1.29019 18.8971 0.867885 18.8492C0.6581 18.8253 0.457507 18.944 0.386061 19.1351C0.314616 19.3263 0.390339 19.5395 0.568816 19.6491C3.21029 21.2716 6.2646 22.1292 9.40137 22.1292C15.5679 22.1292 19.4255 19.3435 21.5757 17.0065C24.2569 14.0926 25.7947 10.2356 25.7947 6.42464C25.7947 6.26543 25.7921 6.10465 25.787 5.9444C26.8449 5.18088 27.7556 4.25685 28.4968 3.19479C28.6093 3.03349 28.5972 2.82031 28.4667 2.67183C28.3365 2.52326 28.1194 2.47522 27.9341 2.55386Z" fill="white"/>
</svg>
