<svg width="26" height="26" viewBox="0 0 26 26" fill="none" xmlns="http://www.w3.org/2000/svg">
<path d="M13.1094 25.7998C20.0129 25.7998 25.6094 20.2034 25.6094 13.2998C25.6094 6.39625 20.0129 0.799805 13.1094 0.799805C6.20582 0.799805 0.609375 6.39625 0.609375 13.2998C0.609375 20.2034 6.20582 25.7998 13.1094 25.7998Z" fill="white"/>
<path d="M17.2007 8.59753H9.01974C8.69281 8.59753 8.36908 8.66196 8.06705 8.78712C7.76503 8.91228 7.49063 9.09572 7.25953 9.32698C7.02843 9.55823 6.84516 9.83275 6.7202 10.1349C6.59524 10.437 6.53103 10.7607 6.53125 11.0877V15.512C6.53103 15.8389 6.59524 16.1627 6.7202 16.4648C6.84516 16.7669 7.02843 17.0414 7.25953 17.2727C7.49063 17.5039 7.76503 17.6874 8.06705 17.8126C8.36908 17.9377 8.69281 18.0021 9.01974 18.0021H17.2007C17.5276 18.0021 17.8513 17.9377 18.1533 17.8126C18.4554 17.6874 18.7298 17.5039 18.9609 17.2727C19.192 17.0414 19.3752 16.7669 19.5002 16.4648C19.6252 16.1627 19.6894 15.8389 19.6891 15.512V11.0877C19.6894 10.7607 19.6252 10.437 19.5002 10.1349C19.3752 9.83275 19.192 9.55823 18.9609 9.32698C18.7298 9.09572 18.4554 8.91228 18.1533 8.78712C17.8513 8.66196 17.5276 8.59753 17.2007 8.59753ZM11.3766 15.3163V11.2834L14.8438 13.2998L11.3766 15.3163Z" fill="#31265A"/>
</svg>
