<svg width="25" height="24" viewBox="0 0 25 24" fill="none" xmlns="http://www.w3.org/2000/svg">
<g clip-path="url(#clip0_8061_291591)">
<path d="M12.5 24C19.1274 24 24.5 18.6274 24.5 12C24.5 5.37258 19.1274 0 12.5 0C5.87258 0 0.5 5.37258 0.5 12C0.5 18.6274 5.87258 24 12.5 24Z" fill="#FF0000"/>
<path d="M16.4301 7.48535H8.57645C8.26259 7.48535 7.95182 7.5472 7.66187 7.66735C7.37193 7.78751 7.1085 7.96361 6.88665 8.18562C6.66479 8.40762 6.48886 8.67116 6.36889 8.96118C6.24893 9.2512 6.18729 9.56202 6.1875 9.87588V14.1232C6.18729 14.4371 6.24893 14.7479 6.36889 15.0379C6.48886 15.328 6.66479 15.5915 6.88665 15.8135C7.1085 16.0355 7.37193 16.2116 7.66187 16.3318C7.95182 16.4519 8.26259 16.5138 8.57645 16.5138H16.4301C16.744 16.5138 17.0548 16.4519 17.3447 16.3318C17.6347 16.2116 17.8981 16.0355 18.1199 15.8135C18.3418 15.5915 18.5177 15.328 18.6377 15.0379C18.7576 14.7479 18.8193 14.4371 18.8191 14.1232V9.87588C18.8193 9.56202 18.7576 9.2512 18.6377 8.96118C18.5177 8.67116 18.3418 8.40762 18.1199 8.18562C17.8981 7.96361 17.6347 7.78751 17.3447 7.66735C17.0548 7.5472 16.744 7.48535 16.4301 7.48535ZM10.8391 13.9354V10.0638L14.1675 11.9996L10.8391 13.9354Z" fill="white"/>
</g>
<defs>
<clipPath id="clip0_8061_291591">
<rect width="24" height="24" fill="white" transform="translate(0.5)"/>
</clipPath>
</defs>
</svg>
